{"glyphs":{"0":{"ha":754,"x_min":53,"x_max":768,"o":"m 70 495 q 127 699 88 611 q 221 846 166 787 q 343 932 276 905 q 484 953 410 959 q 616 907 559 945 q 710 801 674 868 q 757 642 746 734 q 750 433 768 549 q 696 239 734 324 q 603 96 658 153 q 481 11 549 38 q 338 -10 413 -16 q 209 35 267 -3 q 115 140 152 73 q 65 296 78 206 q 70 495 53 386 m 220 481 q 209 328 208 398 q 227 207 211 259 q 275 125 244 155 q 354 91 307 96 q 442 110 402 86 q 513 181 482 134 q 566 296 544 228 q 600 447 587 364 q 595 730 627 623 q 469 845 564 837 q 311 755 374 852 q 220 481 247 658 z "},"1":{"ha":445,"x_min":104,"x_max":431,"o":"m 155 808 l 383 940 l 431 940 q 420 902 428 937 q 401 795 412 867 l 303 145 q 300 84 299 110 q 307 39 302 57 q 317 11 311 21 q 324 0 322 2 l 104 0 q 114 10 105 0 q 133 37 123 19 q 155 81 144 54 q 171 145 166 109 l 252 680 q 259 741 259 722 q 251 764 260 760 q 216 760 241 768 q 145 741 192 752 l 155 808 z "},"2":{"ha":643,"x_min":10,"x_max":664,"o":"m 656 694 q 643 643 651 667 q 614 589 634 619 q 561 520 594 559 q 479 424 528 481 q 359 290 429 367 q 195 107 289 212 l 433 107 q 532 124 500 107 q 591 174 565 140 l 552 0 l 10 0 l 24 94 q 196 288 112 196 q 350 457 281 380 q 463 599 418 535 q 514 710 508 663 q 511 759 517 734 q 488 805 504 784 q 442 839 471 825 q 374 856 413 852 q 248 833 303 859 q 169 768 193 808 l 193 916 q 283 947 227 934 q 420 953 338 959 q 526 928 479 950 q 605 872 573 907 q 651 793 637 838 q 656 694 664 747 z "},"3":{"ha":643,"x_min":46,"x_max":653,"o":"m 581 270 q 535 158 568 209 q 454 70 501 107 q 350 14 407 34 q 233 -6 292 -6 q 163 -2 192 -6 q 113 9 134 2 q 76 26 91 16 q 46 45 61 35 l 69 193 q 116 123 81 152 q 220 94 150 94 q 298 109 262 94 q 362 146 334 123 q 409 200 390 169 q 436 263 428 230 q 440 328 442 297 q 420 384 437 359 q 367 425 402 409 q 275 442 332 441 l 204 442 l 219 538 l 263 538 q 364 555 322 540 q 433 595 405 570 q 476 651 460 619 q 500 717 492 683 q 499 765 504 741 q 477 808 493 789 q 433 840 461 827 q 364 852 405 852 q 243 824 294 852 q 168 754 192 795 l 192 902 q 280 937 225 921 q 418 953 335 953 q 524 935 477 953 q 600 884 570 916 q 642 807 631 851 q 642 710 653 763 q 625 655 635 683 q 595 598 615 626 q 545 542 576 570 q 466 490 514 514 q 532 451 506 477 q 570 394 557 425 q 584 329 583 362 q 581 270 586 295 z "},"4":{"ha":714,"x_min":46,"x_max":709,"o":"m 675 263 l 548 263 l 532 145 q 528 84 525 110 q 535 39 530 57 q 545 11 540 21 q 552 0 551 2 l 330 0 q 360 37 334 2 q 399 145 386 72 l 415 263 l 46 263 l 59 351 l 535 940 l 658 940 q 627 795 651 936 l 564 370 q 646 380 608 370 q 709 418 683 390 l 675 263 m 493 777 q 465 734 487 766 q 411 660 442 702 q 344 571 380 618 q 275 483 308 524 q 215 411 241 442 q 176 372 188 380 l 433 370 l 493 777 z "},"5":{"ha":640,"x_min":46,"x_max":655,"o":"m 259 581 l 354 581 q 501 551 447 581 q 581 476 556 520 q 610 380 607 431 q 605 286 613 329 q 559 172 592 225 q 477 78 525 118 q 373 16 429 38 q 257 -6 316 -6 q 124 10 172 -6 q 46 45 75 26 l 70 193 q 128 123 81 152 q 244 94 174 94 q 322 111 286 94 q 386 154 358 128 q 433 213 415 180 q 460 279 452 246 q 464 346 466 313 q 445 408 461 380 q 394 454 428 436 q 302 474 359 473 l 120 474 l 227 940 l 655 940 l 639 779 q 596 821 626 808 q 500 833 567 833 l 316 833 l 259 581 z "},"6":{"ha":663,"x_min":51,"x_max":674,"o":"m 477 849 q 402 830 441 849 q 329 774 362 811 q 270 685 295 738 q 235 567 244 632 q 319 607 268 591 q 426 619 370 623 q 546 583 500 615 q 617 504 592 551 q 648 404 642 458 q 648 299 655 350 q 606 174 639 231 q 526 74 573 117 q 422 9 479 32 q 307 -10 366 -14 q 183 30 235 -5 q 100 127 131 65 q 60 271 69 188 q 65 452 51 353 q 124 659 81 567 q 223 817 166 752 q 351 918 281 883 q 496 953 421 953 q 674 921 595 953 l 651 766 q 477 849 600 849 m 378 514 q 296 503 342 517 q 219 452 251 489 q 219 184 192 273 q 318 91 246 96 q 384 105 353 88 q 439 152 415 123 q 479 219 463 180 q 501 297 495 257 q 488 451 514 393 q 378 514 461 509 z "},"7":{"ha":603,"x_min":85,"x_max":690,"o":"m 682 894 q 611 774 651 846 q 527 619 572 702 q 437 447 482 536 q 354 275 393 358 q 287 120 314 192 q 247 0 259 48 l 85 0 q 129 120 97 49 q 202 270 160 190 q 292 433 244 350 q 387 594 340 517 q 477 733 434 670 q 548 833 519 795 l 265 833 q 165 817 198 833 q 107 766 133 800 l 147 940 l 690 940 l 682 894 z "},"8":{"ha":669,"x_min":37,"x_max":674,"o":"m 46 294 q 69 362 51 327 q 112 426 86 398 q 172 477 137 455 q 244 506 206 498 q 160 622 184 557 q 144 739 136 686 q 243 899 161 845 q 441 953 326 953 q 543 929 498 953 q 618 867 587 905 q 661 778 648 829 q 666 675 674 728 q 654 622 661 648 q 630 569 647 595 q 585 518 613 543 q 512 473 557 493 q 577 413 552 445 q 615 346 602 380 q 632 281 629 313 q 631 223 635 249 q 591 119 621 163 q 515 47 560 75 q 413 6 469 19 q 297 -6 356 -6 q 188 18 238 -6 q 103 82 137 42 q 53 178 69 123 q 46 294 37 233 m 489 235 q 482 295 493 268 q 448 346 471 322 q 393 391 425 370 q 326 433 361 412 q 231 372 265 415 q 188 271 196 329 q 190 210 184 241 q 213 153 196 179 q 255 112 230 128 q 316 96 281 96 q 433 135 388 96 q 489 235 479 174 m 532 694 q 531 744 535 717 q 514 795 527 771 q 479 835 501 819 q 425 851 457 851 q 322 815 356 851 q 283 734 289 779 q 307 637 273 677 q 404 551 342 597 q 493 600 465 570 q 532 694 522 631 z "},"9":{"ha":667,"x_min":61,"x_max":683,"o":"m 255 94 q 331 113 292 94 q 404 168 370 133 q 463 257 437 204 q 498 375 489 310 q 415 335 466 351 q 308 322 364 319 q 188 359 235 327 q 114 437 140 391 q 81 538 88 484 q 83 643 75 592 q 125 769 93 710 q 206 869 158 827 q 311 935 254 912 q 428 953 369 958 q 552 912 500 948 q 635 814 603 875 q 674 670 666 754 q 669 490 683 587 q 610 283 651 375 q 510 125 568 190 q 382 26 452 61 q 238 -10 311 -10 q 61 22 139 -10 l 83 177 q 255 94 134 94 m 354 426 q 437 437 391 423 q 516 490 482 452 q 515 757 543 669 q 415 851 487 845 q 347 836 378 852 q 292 790 316 819 q 252 723 268 761 q 230 645 236 685 q 245 491 217 549 q 354 426 273 433 z "},"\u0000":{"ha":3,"x_min":0,"x_max":0,"o":""}," ":{"ha":249,"x_min":0,"x_max":0,"o":""},"!":{"ha":310,"x_min":35,"x_max":345,"o":"m 187 947 l 345 947 l 319 806 l 196 255 l 129 255 l 168 806 l 187 947 m 42 93 q 79 155 48 134 q 148 171 110 176 q 211 136 187 164 q 228 65 235 107 q 192 5 222 24 q 121 -10 161 -14 q 59 24 83 -3 q 42 93 35 51 z "},"\"":{"ha":457,"x_min":112,"x_max":479,"o":"m 148 972 l 267 972 l 247 835 l 200 629 l 112 629 l 129 835 l 148 972 m 361 972 l 479 972 l 460 835 l 412 629 l 324 629 l 342 835 l 361 972 z "},"#":{"ha":827,"x_min":59,"x_max":837,"o":"m 380 0 l 453 219 l 276 219 l 203 0 l 104 0 l 176 219 l 59 219 l 75 324 l 209 324 l 308 623 l 166 623 l 180 728 l 342 728 l 413 947 l 514 947 l 441 728 l 619 728 l 691 947 l 792 947 l 718 728 l 837 728 l 822 623 l 685 623 l 587 324 l 731 324 l 715 219 l 554 219 l 481 0 l 380 0 m 487 324 l 586 623 l 409 623 l 310 324 l 487 324 z "},"$":{"ha":623,"x_min":26,"x_max":645,"o":"m 445 208 q 444 270 452 243 q 418 321 436 297 q 375 365 401 345 q 321 405 350 385 q 242 467 281 433 q 174 544 203 501 q 130 636 145 586 q 125 746 115 686 q 159 837 133 798 q 226 901 185 875 q 318 940 267 928 q 429 953 370 953 q 564 937 512 953 q 645 902 616 921 l 623 754 q 564 824 610 795 q 447 852 517 852 q 320 824 364 852 q 268 749 276 795 q 274 694 263 720 q 305 643 284 667 q 353 595 326 618 q 409 549 380 572 q 489 478 452 514 q 552 402 527 442 q 587 314 576 361 q 591 211 599 268 q 552 110 581 153 q 477 39 522 67 q 375 -3 433 11 q 252 -18 318 -18 q 112 -2 166 -18 q 26 34 57 14 l 38 200 q 67 156 46 177 q 115 118 88 134 q 175 93 142 102 q 241 83 208 83 q 386 120 332 83 q 445 208 439 156 m 396 1054 l 481 1054 l 302 -137 l 217 -137 l 396 1054 z "},"%":{"ha":880,"x_min":40,"x_max":900,"o":"m 140 0 l 40 0 q 53 16 45 6 q 86 55 62 26 q 157 143 110 85 q 287 304 204 201 q 493 562 369 407 q 797 940 618 717 l 900 940 l 140 0 m 500 225 q 578 407 517 343 q 709 471 639 471 q 773 454 744 471 q 820 406 801 437 q 845 330 838 375 q 845 225 852 284 q 816 127 837 171 q 766 53 795 83 q 704 6 738 22 q 635 -10 670 -10 q 524 53 565 -10 q 500 225 482 115 m 600 225 q 601 107 589 152 q 647 62 613 62 q 704 107 678 62 q 742 225 730 152 q 742 351 754 305 q 698 398 730 398 q 639 351 664 398 q 600 225 613 305 m 99 704 q 129 809 109 763 q 178 885 150 854 q 239 933 206 916 q 308 950 273 950 q 372 933 343 950 q 420 885 401 916 q 446 809 439 854 q 444 704 453 763 q 416 606 436 650 q 367 532 396 562 q 305 485 338 501 q 236 469 271 469 q 172 485 201 469 q 125 532 144 501 q 98 606 105 562 q 99 704 91 650 m 200 704 q 201 586 188 631 q 247 541 214 541 q 304 586 279 541 q 342 704 329 631 q 342 830 354 784 q 297 876 329 876 q 239 830 265 876 q 200 704 212 784 z "},"&":{"ha":967,"x_min":34,"x_max":928,"o":"m 669 717 q 643 643 663 674 q 596 588 624 611 q 535 548 568 565 q 466 516 501 532 l 647 273 q 714 425 701 354 q 720 489 722 460 q 702 532 718 519 l 896 532 q 844 485 864 517 q 817 418 824 452 q 783 311 808 375 q 712 185 758 247 q 761 133 733 153 q 821 105 790 113 q 879 99 851 96 q 928 117 907 102 q 913 75 924 97 q 883 34 902 53 q 837 4 864 16 q 774 -8 809 -8 q 681 16 720 -8 q 605 83 642 40 q 543 44 578 62 q 468 14 508 26 q 384 -4 428 2 q 294 -3 340 -10 q 184 26 235 3 q 100 86 134 49 q 49 173 65 123 q 43 284 34 223 q 75 378 51 338 q 131 445 99 417 q 200 492 163 473 q 271 532 236 512 q 216 639 236 578 q 204 766 196 701 q 234 845 211 809 q 291 906 257 881 q 369 942 326 931 q 460 948 412 953 q 561 919 519 940 q 629 866 603 897 q 665 796 655 835 q 669 717 675 757 m 321 91 q 442 107 380 83 q 546 164 504 131 l 326 461 q 275 431 300 447 q 231 394 251 415 q 196 347 211 374 q 176 286 182 321 q 203 155 164 208 q 321 91 241 102 m 538 738 q 522 814 544 781 q 458 854 500 848 q 414 850 434 857 q 379 829 394 843 q 354 797 364 816 q 343 760 345 779 q 354 671 335 714 q 410 591 374 629 q 463 623 441 608 q 501 654 485 637 q 526 690 517 670 q 538 738 535 710 z "},"'":{"ha":238,"x_min":112,"x_max":267,"o":"m 148 972 l 267 972 l 247 835 l 200 629 l 112 629 l 129 835 l 148 972 z "},"(":{"ha":412,"x_min":67,"x_max":508,"o":"m 230 -239 q 101 65 134 -85 q 91 366 67 216 q 190 666 112 516 q 412 971 268 816 l 508 971 q 410 838 457 912 q 326 684 364 765 q 263 522 289 603 q 225 366 236 441 q 216 209 214 291 q 231 47 217 128 q 268 -107 244 -34 q 326 -239 292 -180 l 230 -239 z "},")":{"ha":412,"x_min":-38,"x_max":401,"o":"m -38 -239 q 57 -107 11 -180 q 141 47 104 -34 q 206 209 179 128 q 244 366 233 291 q 253 522 255 441 q 236 684 251 603 q 198 838 222 765 q 142 971 174 912 l 238 971 q 367 666 334 816 q 378 366 401 516 q 278 65 356 216 q 56 -239 200 -85 l -38 -239 z "},"*":{"ha":469,"x_min":73,"x_max":503,"o":"m 279 674 l 179 525 l 89 592 l 214 710 l 73 739 l 129 857 l 255 784 l 259 956 l 385 956 l 337 784 l 484 857 l 503 739 l 353 710 l 444 592 l 334 525 l 279 674 z "},"+":{"ha":699,"x_min":96,"x_max":688,"o":"m 489 730 l 450 479 l 688 479 l 672 374 l 434 374 l 398 123 l 297 123 l 334 374 l 96 374 l 112 479 l 350 479 l 388 730 l 489 730 z "},",":{"ha":314,"x_min":43,"x_max":267,"o":"m 259 37 q 196 -92 249 -35 q 43 -172 144 -148 q 76 -144 59 -161 q 105 -109 93 -128 q 127 -73 118 -91 q 137 -42 136 -56 q 135 -15 140 -29 q 117 5 129 -2 q 84 42 94 18 q 77 94 73 65 q 114 156 83 136 q 184 171 145 177 q 244 128 222 163 q 259 37 267 93 z "},"-":{"ha":538,"x_min":89,"x_max":501,"o":"m 107 399 l 501 399 l 484 294 l 89 294 l 107 399 z "},".":{"ha":314,"x_min":64,"x_max":263,"o":"m 72 93 q 108 155 77 134 q 177 171 139 176 q 240 136 217 164 q 259 65 263 107 q 221 5 252 24 q 152 -10 190 -14 q 88 24 112 -3 q 72 93 64 51 z "},"/":{"ha":463,"x_min":-43,"x_max":573,"o":"m -43 -241 l 471 971 l 573 971 l 57 -241 l -43 -241 z "},":":{"ha":314,"x_min":45,"x_max":319,"o":"m 51 80 q 89 146 57 121 q 161 171 120 171 q 225 146 201 171 q 243 80 249 121 q 204 14 235 38 q 134 -10 174 -10 q 69 14 93 -10 q 51 80 45 38 m 123 559 q 160 625 129 600 q 231 650 192 650 q 296 625 273 650 q 314 559 319 600 q 277 493 308 517 q 204 469 246 469 q 140 493 164 469 q 123 559 117 517 z "},";":{"ha":314,"x_min":26,"x_max":327,"o":"m 129 559 q 167 625 136 600 q 238 650 198 650 q 303 625 278 650 q 319 559 327 600 q 283 493 314 517 q 211 469 251 469 q 147 493 171 469 q 129 559 123 517 m 244 53 q 179 -85 231 -21 q 26 -172 126 -148 q 86 -111 57 -148 q 120 -45 115 -73 q 117 -19 123 -32 q 99 -2 110 -6 q 65 30 77 8 q 57 80 53 51 q 95 146 64 121 q 168 171 126 171 q 230 140 208 171 q 244 53 252 109 z "},"<":{"ha":699,"x_min":96,"x_max":722,"o":"m 722 702 l 707 597 l 239 426 l 655 255 l 639 150 l 96 374 l 112 479 l 722 702 z "},"=":{"ha":699,"x_min":78,"x_max":706,"o":"m 672 367 l 655 262 l 78 262 l 96 367 l 672 367 m 706 591 l 690 485 l 113 485 l 129 591 l 706 591 z "},">":{"ha":699,"x_min":62,"x_max":688,"o":"m 688 479 l 672 374 l 62 150 l 78 255 l 546 426 l 131 597 l 145 702 l 688 479 z "},"?":{"ha":565,"x_min":96,"x_max":592,"o":"m 179 300 q 210 404 187 359 q 263 484 233 449 q 323 548 292 519 q 382 605 354 576 q 425 664 409 634 q 444 733 442 694 q 422 816 447 779 q 330 852 398 852 q 271 845 302 852 q 212 825 239 838 q 162 794 184 813 q 129 754 140 776 l 152 902 q 251 939 198 924 q 362 953 303 953 q 531 891 469 953 q 589 723 592 829 q 565 633 587 672 q 510 561 543 594 q 439 500 477 528 q 366 441 401 471 q 307 378 332 412 q 276 300 283 343 l 268 255 l 171 255 l 179 300 m 102 93 q 140 155 109 134 q 209 171 171 176 q 271 136 247 164 q 289 65 295 107 q 252 5 283 24 q 182 -10 222 -14 q 120 24 144 -3 q 102 93 96 51 z "},"@":{"ha":979,"x_min":72,"x_max":980,"o":"m 736 216 q 690 219 714 216 q 645 231 666 222 q 608 258 624 241 q 586 299 592 275 q 507 227 549 247 q 413 206 465 206 q 352 223 380 206 q 307 271 324 239 q 285 350 289 303 q 295 453 281 396 q 338 561 310 512 q 402 646 367 610 q 478 702 437 682 q 557 722 519 722 q 614 710 592 722 q 653 672 635 698 q 660 698 656 688 q 667 715 664 707 l 771 715 q 753 650 768 712 q 702 450 738 587 q 687 367 690 399 q 692 318 685 335 q 714 293 699 300 q 750 286 728 286 q 836 340 801 286 q 873 492 870 394 q 852 643 876 573 q 783 765 829 714 q 674 845 738 816 q 538 875 611 875 q 407 846 469 875 q 298 764 345 817 q 222 633 251 710 q 192 460 193 556 q 213 295 188 369 q 283 169 238 222 q 387 89 327 117 q 516 61 447 61 q 652 77 586 61 q 768 125 718 93 l 747 29 q 638 -7 701 6 q 509 -21 575 -21 q 338 14 418 -21 q 197 112 257 48 q 105 263 137 176 q 75 460 72 351 q 116 665 77 573 q 218 821 155 757 q 364 919 281 884 q 538 953 447 953 q 712 918 631 953 q 853 821 793 883 q 947 676 913 760 q 977 495 980 592 q 957 383 975 434 q 907 295 939 332 q 831 237 875 259 q 736 216 787 216 m 407 460 q 395 377 394 410 q 405 323 396 343 q 429 295 413 303 q 465 286 445 286 q 496 292 479 286 q 532 313 514 299 q 564 350 549 327 q 587 409 578 374 l 627 575 q 614 625 635 607 q 564 643 592 643 q 471 596 512 642 q 407 460 429 551 z "},"A":{"ha":894,"x_min":-18,"x_max":849,"o":"m 594 330 l 291 330 l 204 145 q 183 78 185 105 q 186 34 180 51 q 200 10 192 18 q 208 0 208 2 l -18 0 q 22 38 -13 3 q 94 145 57 73 l 407 793 q 421 829 415 808 q 428 869 426 849 q 423 908 429 889 q 401 940 417 928 l 618 940 q 619 928 616 940 q 630 885 623 916 q 649 799 637 854 q 680 655 661 744 q 724 441 699 567 q 782 145 749 316 q 799 84 789 110 q 821 40 809 57 q 840 12 832 22 q 849 0 848 2 l 589 0 q 599 9 591 2 q 617 33 608 16 q 631 77 626 49 q 627 145 635 104 l 594 330 m 338 431 l 575 431 l 504 776 l 338 431 z "},"B":{"ha":715,"x_min":13,"x_max":693,"o":"m 678 696 q 627 580 672 634 q 511 509 583 525 q 595 477 560 500 q 653 422 631 453 q 684 354 675 391 q 690 279 693 316 q 578 74 677 148 q 326 0 479 0 l 13 0 q 23 10 14 0 q 42 37 32 19 q 64 81 53 54 q 80 145 75 109 l 177 795 q 180 856 182 830 q 172 901 177 883 q 162 929 168 920 q 155 940 156 939 l 380 940 q 611 884 532 940 q 678 696 690 827 m 259 447 l 206 107 l 319 107 q 469 158 413 107 q 532 289 524 209 q 494 405 540 362 q 354 447 449 447 l 259 447 m 316 833 l 271 544 l 350 544 q 466 584 421 544 q 517 686 511 624 q 486 800 525 766 q 375 833 447 833 l 316 833 z "},"C":{"ha":761,"x_min":54,"x_max":817,"o":"m 225 465 q 234 312 216 382 q 289 193 252 243 q 378 116 326 144 q 487 88 429 88 q 616 115 554 88 q 718 195 678 142 l 698 49 q 591 6 648 21 q 455 -10 533 -10 q 295 24 370 -10 q 164 119 219 57 q 82 268 110 180 q 65 465 54 356 q 124 672 77 581 q 239 825 171 763 q 390 920 308 888 q 556 953 473 953 q 715 937 645 953 q 817 902 785 921 l 795 754 q 713 826 776 800 q 562 852 650 852 q 443 825 500 852 q 341 746 386 797 q 265 624 295 696 q 225 465 235 552 z "},"D":{"ha":813,"x_min":13,"x_max":824,"o":"m 13 0 q 23 10 14 0 q 42 37 32 19 q 64 81 53 54 q 80 145 75 109 l 177 795 q 180 856 182 830 q 172 901 177 883 q 162 929 168 920 q 155 940 156 939 l 429 940 q 591 909 517 940 q 718 818 666 878 q 797 670 771 758 q 816 465 824 581 q 769 270 808 356 q 668 124 730 184 q 528 32 607 64 q 361 0 449 0 l 13 0 m 316 833 l 204 102 l 370 102 q 481 128 429 102 q 572 200 533 153 q 634 314 610 247 q 664 465 658 382 q 609 737 677 640 q 421 833 541 833 l 316 833 z "},"E":{"ha":602,"x_min":13,"x_max":664,"o":"m 520 0 l 13 0 q 23 10 14 0 q 42 37 32 19 q 64 81 53 54 q 80 145 75 109 l 177 795 q 181 859 184 832 q 173 904 179 886 q 161 931 168 921 q 155 940 155 940 l 664 940 l 647 773 q 605 817 635 801 q 508 833 575 833 l 316 833 l 270 535 l 466 535 q 514 542 493 535 q 550 557 535 549 q 574 573 565 565 q 584 583 583 581 l 556 388 q 548 397 554 390 q 529 412 541 404 q 497 427 517 420 q 450 434 477 434 l 255 434 l 206 107 l 399 107 q 498 124 466 107 q 556 174 530 140 l 520 0 z "},"F":{"ha":587,"x_min":13,"x_max":664,"o":"m 255 434 l 212 145 q 210 82 208 109 q 217 38 212 56 q 227 10 222 19 q 233 0 233 2 l 13 0 q 23 11 14 2 q 42 39 32 21 q 64 84 53 57 q 80 145 75 110 l 177 795 q 181 859 184 832 q 173 904 179 886 q 161 931 168 921 q 155 940 155 940 l 664 940 l 647 773 q 605 817 635 801 q 508 833 575 833 l 316 833 l 270 535 l 466 535 q 514 542 493 535 q 550 557 535 549 q 574 573 565 565 q 584 583 583 581 l 556 388 q 548 397 554 390 q 529 412 541 404 q 497 427 517 420 q 450 434 477 434 l 255 434 z "},"G":{"ha":860,"x_min":57,"x_max":864,"o":"m 765 85 q 628 13 698 35 q 469 -10 559 -10 q 307 24 383 -10 q 175 119 231 57 q 88 268 118 180 q 65 465 57 356 q 121 672 73 581 q 239 825 168 763 q 397 920 310 888 q 570 953 484 953 q 657 948 615 953 q 737 936 699 943 q 803 920 774 929 q 848 902 832 912 l 825 754 q 737 826 806 800 q 580 852 667 852 q 450 825 512 852 q 340 746 388 797 q 262 624 292 696 q 225 465 231 552 q 238 312 219 382 q 295 193 257 243 q 384 116 332 144 q 496 88 436 88 q 568 98 538 88 q 639 129 599 109 l 669 327 q 671 386 674 362 q 663 425 669 410 q 650 448 656 441 q 642 457 643 455 l 864 457 q 854 449 862 455 q 836 427 846 442 q 816 387 825 412 q 801 327 806 362 l 765 85 z "},"H":{"ha":833,"x_min":13,"x_max":899,"o":"m 736 145 q 732 84 730 110 q 739 39 734 57 q 750 11 744 21 q 757 0 755 2 l 535 0 q 545 10 536 0 q 565 37 554 19 q 587 81 576 54 q 603 145 599 109 l 648 442 l 257 442 l 212 145 q 209 84 208 110 q 216 39 211 57 q 226 11 220 21 q 233 0 231 2 l 13 0 q 23 10 14 0 q 42 37 32 19 q 64 81 53 54 q 80 145 75 109 l 177 795 q 180 856 182 830 q 172 901 177 883 q 162 929 168 920 q 155 940 156 939 l 377 940 q 366 929 375 939 q 346 902 358 920 q 325 857 335 884 q 310 795 314 830 l 271 543 l 663 543 l 701 795 q 703 856 706 830 q 696 901 701 883 q 686 929 691 920 q 678 940 680 939 l 899 940 q 889 929 897 939 q 870 902 881 920 q 848 857 859 884 q 833 795 838 830 l 736 145 z "},"I":{"ha":311,"x_min":13,"x_max":377,"o":"m 212 145 q 209 84 208 110 q 216 39 211 57 q 226 11 220 21 q 233 0 231 2 l 13 0 q 23 10 14 0 q 42 37 32 19 q 64 81 53 54 q 80 145 75 109 l 177 795 q 180 856 182 830 q 172 901 177 883 q 162 929 168 920 q 155 940 156 939 l 377 940 q 366 929 375 939 q 346 902 358 920 q 325 857 335 884 q 310 795 314 830 l 212 145 z "},"J":{"ha":311,"x_min":-147,"x_max":383,"o":"m 214 97 q 168 -64 200 0 q 99 -165 136 -128 q 23 -218 62 -203 q -45 -233 -16 -233 q -112 -215 -88 -233 q -147 -169 -136 -196 q -82 -158 -117 -169 q -15 -117 -48 -147 q 44 -31 18 -86 q 83 113 70 24 l 187 795 q 189 856 192 830 q 181 901 187 883 q 170 929 176 920 q 163 940 164 939 l 383 940 q 374 929 382 939 q 355 902 366 920 q 334 857 345 884 q 319 795 324 830 l 214 97 z "},"K":{"ha":803,"x_min":13,"x_max":840,"o":"m 268 527 l 551 825 q 586 874 576 854 q 595 907 595 894 q 591 928 595 920 q 581 940 586 936 l 840 940 q 775 904 821 932 q 683 825 730 876 l 402 532 l 632 115 q 694 36 659 64 q 744 0 730 8 l 452 0 q 466 13 458 5 q 477 34 474 21 q 478 66 481 46 q 461 115 476 86 l 260 471 l 212 145 q 209 84 208 110 q 216 39 211 57 q 226 11 220 21 q 233 0 231 2 l 13 0 q 23 10 14 0 q 42 37 32 19 q 64 81 53 54 q 80 145 75 109 l 177 795 q 180 856 182 830 q 172 901 177 883 q 162 929 168 920 q 155 940 156 939 l 377 940 q 366 929 375 939 q 346 902 358 920 q 325 857 335 884 q 310 795 314 830 l 268 527 z "},"L":{"ha":580,"x_min":13,"x_max":557,"o":"m 520 0 l 13 0 q 23 10 14 0 q 42 37 32 19 q 64 81 53 54 q 80 145 75 109 l 177 795 q 180 856 182 830 q 172 901 177 883 q 162 929 168 920 q 155 940 156 939 l 377 940 q 366 929 375 939 q 346 902 358 920 q 325 857 335 884 q 310 795 314 830 l 212 145 l 206 107 l 399 107 q 499 128 466 107 q 557 182 532 148 l 520 0 z "},"M":{"ha":1063,"x_min":11,"x_max":1117,"o":"m 311 940 q 322 906 310 939 q 364 794 335 873 q 438 582 393 715 q 546 247 484 449 q 728 564 651 433 q 853 777 805 694 q 925 900 902 860 q 948 940 948 939 l 1117 940 q 1106 929 1114 939 q 1086 901 1097 920 q 1065 856 1076 883 q 1049 795 1054 830 l 953 145 q 949 81 947 109 q 957 37 951 54 q 968 10 963 19 q 975 0 974 0 l 754 0 q 764 11 755 2 q 783 39 773 21 q 804 84 793 57 q 821 145 814 110 l 896 645 q 769 433 830 538 q 658 240 707 329 q 573 88 608 152 q 525 0 538 24 l 469 0 q 451 64 466 16 q 414 176 436 112 q 368 312 393 239 q 321 451 343 385 q 281 569 299 517 q 257 645 263 621 l 182 145 q 179 84 177 110 q 185 39 180 57 q 196 11 190 21 q 203 0 201 2 l 11 0 q 22 10 13 0 q 41 37 30 19 q 62 81 51 54 q 78 145 73 109 l 176 795 q 178 856 180 830 q 171 901 176 883 q 160 929 166 920 q 153 940 155 939 l 311 940 l 311 940 z "},"N":{"ha":838,"x_min":8,"x_max":907,"o":"m 718 0 l 645 0 q 619 47 645 0 q 552 166 592 94 q 463 323 511 238 q 373 485 415 409 q 300 616 330 560 q 265 686 270 672 l 185 145 q 181 84 179 110 q 188 39 184 57 q 199 11 193 21 q 206 0 204 2 l 8 0 q 38 37 11 2 q 77 145 64 72 l 172 795 q 175 856 177 830 q 168 901 172 883 q 157 929 163 920 q 150 940 152 939 l 287 940 q 311 896 286 939 q 374 788 335 854 q 457 643 412 722 q 544 490 503 564 q 616 359 586 417 q 655 278 647 302 l 733 795 q 735 856 738 830 q 728 901 733 883 q 718 929 723 920 q 710 940 712 939 l 907 940 q 896 929 905 939 q 877 902 888 920 q 856 857 867 884 q 840 795 846 830 l 718 0 z "},"O":{"ha":907,"x_min":59,"x_max":913,"o":"m 69 487 q 120 693 78 603 q 223 842 161 782 q 365 931 286 902 q 528 955 444 959 q 687 912 615 950 q 812 809 760 875 q 888 649 864 742 q 904 439 913 556 q 854 244 894 330 q 752 100 814 158 q 611 13 690 42 q 444 -11 532 -16 q 287 31 359 -6 q 164 133 216 69 q 85 288 112 198 q 69 487 59 378 m 220 479 q 226 326 212 396 q 271 204 239 255 q 349 124 302 153 q 455 91 396 94 q 565 112 514 88 q 655 183 616 136 q 720 297 694 230 q 754 449 746 364 q 748 608 761 536 q 703 732 734 680 q 625 813 672 784 q 519 846 578 843 q 409 826 460 849 q 318 755 358 803 q 252 637 278 707 q 220 479 227 567 z "},"P":{"ha":653,"x_min":13,"x_max":704,"o":"m 246 367 l 212 145 q 209 84 208 110 q 216 39 211 57 q 226 11 220 21 q 233 0 231 2 l 13 0 q 23 10 14 0 q 42 37 32 19 q 64 81 53 54 q 80 145 75 109 l 177 795 q 180 856 182 830 q 172 901 177 883 q 162 929 168 920 q 155 940 156 939 l 383 940 q 522 924 460 940 q 627 873 584 908 q 686 781 669 838 q 693 645 704 725 q 649 526 683 578 q 562 439 615 474 q 441 386 509 404 q 297 367 374 367 l 246 367 m 316 833 l 260 469 l 314 469 q 469 516 410 469 q 541 645 528 562 q 512 791 557 749 q 369 833 466 833 l 316 833 z "},"Q":{"ha":908,"x_min":67,"x_max":921,"o":"m 908 -94 q 856 -180 899 -147 q 754 -214 814 -214 q 681 -204 718 -214 q 607 -171 643 -195 q 535 -108 570 -147 q 469 -11 500 -69 l 452 -10 q 295 30 367 -6 q 170 130 222 67 q 93 283 118 193 q 77 481 67 372 q 128 687 86 597 q 231 837 169 777 q 372 927 294 897 q 535 953 450 956 q 696 914 623 950 q 821 813 769 878 q 896 655 872 747 q 912 447 921 564 q 879 289 905 361 q 811 161 852 217 q 714 66 769 105 q 597 8 659 27 q 656 -59 618 -34 q 738 -96 694 -85 q 827 -105 782 -107 q 908 -94 872 -104 m 227 474 q 233 322 219 391 q 279 202 247 252 q 357 122 310 152 q 463 91 404 93 q 574 113 522 88 q 665 186 626 139 q 729 301 704 233 q 761 453 754 369 q 754 613 768 541 q 710 736 741 685 q 632 815 678 787 q 527 846 586 843 q 417 824 468 848 q 326 751 366 800 q 260 632 286 702 q 227 474 235 562 z "},"R":{"ha":754,"x_min":13,"x_max":693,"o":"m 247 383 l 212 145 q 209 84 208 110 q 216 39 211 57 q 226 11 220 21 q 233 0 231 2 l 13 0 q 23 10 14 0 q 42 37 32 19 q 64 81 53 54 q 80 145 75 109 l 177 795 q 180 856 182 830 q 172 901 177 883 q 162 929 168 920 q 155 940 156 939 l 356 940 q 485 924 426 940 q 585 873 544 908 q 646 785 626 838 q 659 658 666 731 q 641 573 656 615 q 602 498 626 532 q 545 441 578 465 q 476 405 512 417 l 603 115 q 652 36 623 64 q 693 0 682 8 l 428 0 q 441 13 433 5 q 453 34 449 21 q 458 68 458 48 q 447 115 458 88 l 327 383 l 247 383 m 316 833 l 262 485 l 303 485 q 452 536 401 485 q 508 658 503 587 q 476 792 516 750 q 350 833 436 833 l 316 833 z "},"S":{"ha":623,"x_min":26,"x_max":645,"o":"m 445 204 q 442 267 450 239 q 417 319 434 295 q 374 364 399 343 q 321 405 350 385 q 241 467 281 434 q 172 540 201 500 q 127 627 142 580 q 121 734 112 675 q 156 828 129 787 q 224 896 184 868 q 318 939 265 924 q 429 953 370 953 q 564 937 512 953 q 645 902 615 921 l 623 754 q 564 824 610 795 q 447 852 517 852 q 320 825 364 852 q 268 750 276 797 q 274 695 263 722 q 305 644 284 669 q 353 596 326 619 q 409 549 380 573 q 489 480 452 514 q 551 407 525 445 q 587 324 576 369 q 591 222 599 279 q 552 120 581 164 q 477 45 522 75 q 375 -2 433 14 q 252 -18 318 -18 q 111 -2 166 -18 q 26 34 56 14 l 37 200 q 65 156 45 177 q 114 118 86 134 q 175 93 142 102 q 241 83 208 83 q 385 118 332 83 q 445 204 437 153 z "},"T":{"ha":685,"x_min":89,"x_max":774,"o":"m 120 940 l 774 940 l 749 766 q 707 817 734 800 q 613 833 680 833 l 496 833 l 393 145 q 390 84 388 110 q 396 39 391 57 q 406 11 401 21 q 413 0 412 2 l 193 0 q 204 10 195 0 q 223 37 212 19 q 244 81 233 54 q 260 145 255 109 l 364 833 l 247 833 q 148 817 180 833 q 89 766 115 800 l 120 940 z "},"U":{"ha":837,"x_min":94,"x_max":899,"o":"m 236 313 q 259 152 222 212 q 388 93 295 93 q 502 114 439 93 q 607 169 565 136 l 701 795 q 703 856 706 830 q 696 901 701 883 q 686 929 691 920 q 678 940 680 939 l 899 940 q 889 929 897 939 q 870 902 881 920 q 848 857 859 884 q 833 795 838 830 l 736 145 q 733 84 731 110 q 739 39 734 57 q 750 11 744 21 q 757 0 755 2 l 589 0 q 591 17 591 0 q 594 73 592 34 q 537 39 570 54 q 469 14 504 24 q 398 -3 433 3 q 338 -10 364 -10 q 208 14 259 -10 q 132 81 158 38 q 100 181 105 123 q 105 308 94 239 l 177 795 q 181 856 184 830 q 173 901 179 883 q 162 929 168 920 q 155 940 156 939 l 377 940 q 366 929 375 939 q 346 902 358 920 q 325 857 335 884 q 310 795 314 830 l 236 313 z "},"V":{"ha":892,"x_min":125,"x_max":980,"o":"m 465 220 l 757 795 q 779 857 774 830 q 781 902 784 884 q 773 929 779 920 q 768 940 768 939 l 980 940 q 938 900 974 937 q 865 795 902 864 q 708 490 774 618 q 595 275 642 362 q 520 133 549 187 q 477 49 492 78 q 456 10 461 21 q 452 0 450 0 l 366 0 q 364 10 366 0 q 356 50 362 21 q 338 133 350 80 q 306 275 326 187 q 258 490 286 362 q 192 795 230 618 q 151 901 174 865 q 125 940 128 937 l 380 940 q 370 929 378 939 q 354 902 362 920 q 342 857 346 884 q 346 795 338 830 l 465 220 z "},"W":{"ha":1236,"x_min":125,"x_max":1328,"o":"m 402 252 l 710 940 l 777 940 l 878 252 l 1106 795 q 1125 857 1122 830 q 1127 902 1129 884 q 1121 929 1125 920 q 1117 940 1117 939 l 1328 940 q 1291 901 1322 937 q 1229 795 1260 865 q 1094 492 1151 619 q 997 277 1038 366 q 931 134 956 188 q 892 50 905 80 q 872 10 878 21 q 868 0 867 0 l 769 0 q 768 22 771 0 q 754 109 765 43 q 726 299 744 176 q 677 626 707 421 q 572 390 616 489 q 496 221 527 291 q 445 109 465 152 q 414 42 425 65 q 400 9 404 18 q 398 0 396 0 l 297 0 q 296 10 297 0 q 291 50 295 21 q 277 134 286 80 q 255 277 268 188 q 222 492 241 366 q 177 795 203 619 q 148 901 168 865 q 125 940 128 937 l 372 940 q 363 929 370 939 q 349 902 356 920 q 338 857 342 884 q 340 795 335 830 l 402 252 z "},"X":{"ha":889,"x_min":-13,"x_max":967,"o":"m 570 508 l 744 115 q 797 36 766 64 q 840 0 827 8 l 536 0 q 552 13 543 5 q 566 34 560 21 q 572 66 572 46 q 560 115 572 86 l 447 369 l 244 115 q 215 66 222 86 q 208 34 208 46 q 213 13 208 21 q 223 0 219 5 l -13 0 q 44 36 2 8 q 125 115 86 64 l 404 466 l 247 825 q 196 904 227 876 q 152 940 164 932 l 453 940 q 437 928 445 936 q 425 907 429 920 q 420 874 420 894 q 431 825 420 854 l 528 603 l 706 825 q 736 874 728 854 q 744 907 744 894 q 738 928 744 920 q 728 940 733 936 l 967 940 q 908 904 950 932 q 825 825 867 876 l 570 508 z "},"Y":{"ha":806,"x_min":112,"x_max":905,"o":"m 493 370 l 460 145 q 456 84 453 110 q 463 39 458 57 q 473 11 468 21 q 481 0 479 2 l 259 0 q 269 10 260 0 q 289 37 278 19 q 311 81 300 54 q 327 145 322 109 l 361 370 l 184 825 q 139 904 163 873 q 112 940 115 936 l 367 940 q 360 930 366 939 q 350 906 354 921 q 346 871 346 891 q 353 825 345 851 l 482 508 l 686 825 q 709 871 702 851 q 715 906 715 891 q 712 930 715 921 q 709 940 709 939 l 905 940 q 865 906 899 936 q 797 825 832 876 l 493 370 z "},"Z":{"ha":728,"x_min":-3,"x_max":800,"o":"m 13 94 q 96 206 35 128 q 238 386 156 284 q 414 605 319 489 q 599 833 509 722 l 270 833 q 170 817 203 833 q 112 766 137 800 l 142 940 l 800 940 l 787 862 q 709 758 766 830 q 569 583 651 685 q 387 358 487 481 q 182 107 287 236 l 527 107 q 626 124 594 107 q 683 174 658 140 l 653 0 l -3 0 l 13 94 z "},"[":{"ha":439,"x_min":13,"x_max":504,"o":"m 326 -239 l 13 -239 q 29 -203 16 -238 q 53 -94 42 -168 l 187 795 q 196 904 198 868 q 190 940 193 939 l 504 940 l 498 837 q 453 860 485 854 q 354 865 421 865 l 329 865 l 174 -164 l 200 -164 q 257 -164 233 -164 q 298 -161 281 -163 q 326 -156 314 -160 q 350 -145 338 -152 l 326 -239 z "},"\\":{"ha":463,"x_min":137,"x_max":391,"o":"m 289 -241 l 137 971 l 239 971 l 391 -241 l 289 -241 z "},"]":{"ha":439,"x_min":-8,"x_max":482,"o":"m -2 -145 q 44 -161 14 -158 q 140 -164 73 -164 l 168 -164 l 321 865 l 295 865 q 195 860 228 865 q 144 837 161 854 l 168 940 l 482 940 q 467 904 479 939 q 442 795 455 868 l 310 -94 q 300 -203 297 -168 q 305 -239 303 -238 l -8 -239 l -2 -145 z "},"^":{"ha":562,"x_min":38,"x_max":562,"o":"m 562 490 l 463 490 l 353 845 l 137 490 l 38 490 l 340 985 l 410 985 l 562 490 z "},"_":{"ha":594,"x_min":-18,"x_max":587,"o":"m 587 -112 l 570 -217 l -18 -217 l -2 -112 l 587 -112 z "},"`":{"ha":337,"x_min":18,"x_max":270,"o":"m 97 937 l 172 937 q 179 892 169 920 q 204 837 188 865 q 237 784 219 809 q 270 742 255 758 l 176 742 q 131 774 158 754 q 78 821 104 795 q 35 876 53 846 q 22 937 18 907 l 97 937 z "},"a":{"ha":659,"x_min":53,"x_max":678,"o":"m 623 64 q 576 8 605 22 q 522 -6 546 -6 q 460 16 487 -6 q 429 75 433 38 q 366 15 404 38 q 281 -8 327 -8 q 184 14 228 -8 q 111 78 140 37 q 67 180 81 120 q 57 316 53 241 q 90 455 64 391 q 156 564 117 519 q 247 635 196 610 q 350 661 297 661 q 438 645 396 661 q 506 595 481 629 q 514 631 509 618 q 522 653 519 643 l 678 653 q 658 624 675 650 q 631 540 640 599 l 568 123 q 571 73 564 86 q 589 57 578 59 q 611 60 600 56 q 623 64 621 64 m 190 324 q 196 216 185 260 q 228 146 208 172 q 276 108 249 120 q 330 96 303 96 q 442 171 410 96 l 493 496 q 382 557 458 557 q 314 543 346 557 q 256 499 283 528 q 212 425 230 469 q 190 324 195 382 z "},"b":{"ha":680,"x_min":26,"x_max":659,"o":"m 276 581 q 356 642 318 623 q 441 661 394 661 q 603 574 546 661 q 648 337 659 487 q 611 194 642 257 q 534 88 580 131 q 433 22 489 45 q 321 0 378 0 l 26 0 q 46 27 29 2 q 73 113 64 53 l 185 851 q 184 936 193 910 q 171 964 174 961 l 364 980 q 344 952 361 977 q 319 867 327 928 l 276 581 m 516 329 q 486 507 525 457 q 380 557 447 557 q 309 536 342 557 q 260 485 276 514 l 203 97 l 294 97 q 369 111 332 97 q 437 153 405 125 q 489 226 468 182 q 516 329 511 270 z "},"c":{"ha":565,"x_min":51,"x_max":573,"o":"m 196 319 q 228 145 185 211 q 359 80 271 80 q 449 102 409 80 q 524 166 489 125 l 501 38 q 433 6 479 21 q 319 -10 388 -10 q 208 13 259 -10 q 121 77 156 35 q 68 180 85 118 q 59 319 51 241 q 97 463 65 399 q 175 571 128 527 q 280 639 222 615 q 399 663 338 663 q 500 651 450 663 q 573 627 549 640 l 557 503 q 502 549 540 528 q 412 570 465 570 q 266 502 324 570 q 196 319 208 434 z "},"d":{"ha":661,"x_min":38,"x_max":720,"o":"m 46 316 q 81 451 53 388 q 152 560 110 514 q 248 634 195 607 q 359 661 302 661 q 433 655 391 661 q 504 631 476 648 l 538 851 q 539 936 548 910 q 527 964 530 961 l 720 980 q 699 953 717 979 q 672 867 682 928 l 560 113 q 562 78 557 91 q 577 61 567 65 q 600 57 587 56 q 624 64 613 59 q 579 6 611 21 q 519 -8 546 -10 q 450 15 481 -6 q 421 72 420 37 q 341 11 378 30 q 257 -8 303 -8 q 162 14 204 -8 q 91 78 120 37 q 50 180 62 120 q 46 316 38 241 m 179 324 q 181 216 172 260 q 209 146 190 172 q 255 108 228 120 q 308 96 281 96 q 379 117 346 96 q 436 168 412 139 l 490 533 q 441 553 469 546 q 385 560 412 560 q 250 501 310 560 q 179 324 190 442 z "},"e":{"ha":616,"x_min":53,"x_max":627,"o":"m 410 661 q 515 645 473 661 q 583 603 557 629 q 619 543 610 576 q 623 474 627 509 q 601 411 618 442 q 552 356 584 380 q 469 318 519 332 q 350 303 420 303 l 196 303 q 201 219 190 259 q 237 148 212 179 q 296 98 262 117 q 369 80 330 80 q 473 101 418 80 q 556 156 528 123 l 540 38 q 464 6 517 21 q 342 -10 410 -10 q 224 10 279 -10 q 131 71 169 30 q 73 174 93 112 q 59 319 53 236 q 97 456 65 393 q 178 564 129 519 q 287 635 227 610 q 410 661 346 661 m 407 567 q 342 553 374 567 q 283 516 310 540 q 237 461 257 493 q 209 393 217 429 l 378 393 q 473 417 437 393 q 514 471 509 441 q 496 536 520 506 q 407 567 473 567 z "},"f":{"ha":409,"x_min":-91,"x_max":556,"o":"m 447 564 l 300 564 l 300 559 l 206 -62 q 179 -148 200 -109 q 130 -218 158 -188 q 70 -264 102 -247 q 10 -281 38 -281 q -56 -263 -32 -281 q -91 -217 -80 -244 q 18 -168 -30 -217 q 77 -46 65 -120 l 168 564 l 72 564 l 85 653 l 182 653 l 200 773 q 281 927 216 872 q 431 982 346 982 q 509 973 481 982 q 556 956 538 964 l 538 841 q 507 874 530 862 q 450 886 484 886 q 374 861 405 886 q 330 769 342 837 l 314 653 l 461 653 l 447 564 z "},"g":{"ha":610,"x_min":-10,"x_max":694,"o":"m 94 444 q 130 546 102 503 q 197 616 158 589 q 284 655 236 643 q 380 663 332 667 q 453 651 420 659 q 512 636 485 643 q 560 623 538 629 q 600 618 581 618 q 639 624 618 618 q 677 663 661 631 q 690 605 694 637 q 672 556 685 578 q 643 523 659 535 q 607 509 626 511 q 573 519 587 508 q 593 457 591 487 q 592 399 595 426 q 556 304 584 346 q 489 235 528 262 q 403 194 450 208 q 310 185 356 180 q 274 190 297 187 q 228 203 251 193 q 204 177 211 190 q 195 156 196 164 q 221 130 192 139 q 319 113 251 121 q 442 88 394 107 q 516 41 490 69 q 550 -22 543 13 q 552 -91 557 -56 q 520 -178 544 -137 q 454 -249 495 -219 q 360 -295 413 -279 q 243 -307 307 -311 q 141 -287 188 -302 q 61 -251 94 -273 q 9 -196 27 -228 q -6 -125 -10 -164 q 18 -55 -3 -81 q 64 -16 38 -29 q 129 5 93 0 q 112 -19 118 -5 q 100 -48 105 -32 q 94 -85 94 -64 q 135 -163 97 -129 q 257 -204 172 -196 q 333 -200 300 -208 q 389 -176 366 -192 q 425 -140 412 -160 q 441 -99 437 -120 q 438 -65 442 -83 q 417 -33 434 -48 q 370 -6 401 -18 q 289 10 340 5 q 129 46 179 21 q 86 121 78 72 q 121 188 93 160 q 177 233 150 217 q 107 321 131 265 q 94 444 83 377 m 231 428 q 247 316 222 361 q 319 268 273 271 q 407 302 370 263 q 455 407 444 340 q 443 528 468 482 q 367 578 418 573 q 282 542 319 581 q 231 428 244 503 z "},"h":{"ha":688,"x_min":26,"x_max":640,"o":"m 632 22 q 535 -6 572 -5 q 478 7 498 -8 q 453 49 458 22 q 452 109 447 77 l 501 428 q 491 523 509 487 q 431 559 473 559 q 346 543 386 559 q 263 495 305 527 l 206 113 q 206 29 198 54 q 217 0 214 3 l 26 0 q 47 27 29 2 q 75 113 65 53 l 185 851 q 184 936 195 910 q 171 964 174 961 l 366 980 q 345 952 362 977 q 319 867 327 928 l 276 576 q 378 637 321 613 q 481 661 434 661 q 573 642 540 661 q 623 591 607 623 q 639 520 639 560 q 634 439 640 481 l 584 109 q 583 62 580 80 q 594 37 586 45 q 612 26 602 29 q 632 22 623 22 z "},"i":{"ha":313,"x_min":70,"x_max":351,"o":"m 254 22 q 157 -6 195 -5 q 100 7 120 -8 q 75 49 80 22 q 75 109 70 77 l 137 532 q 137 616 147 591 q 125 645 128 642 l 319 661 q 299 633 316 658 q 273 548 281 608 l 206 109 q 205 62 201 80 q 217 37 209 45 q 235 26 225 29 q 254 22 244 22 m 158 865 q 195 928 164 907 q 265 945 225 948 q 328 910 305 939 q 346 840 351 881 q 307 778 338 798 q 238 765 276 758 q 176 796 200 768 q 158 865 152 824 z "},"j":{"ha":313,"x_min":-78,"x_max":361,"o":"m 195 -37 q 133 -192 180 -129 q 26 -267 86 -254 q -42 -263 -18 -275 q -78 -225 -67 -251 q 16 -167 -18 -212 q 61 -48 49 -121 l 148 532 q 147 616 156 591 q 136 645 137 642 l 327 661 q 307 633 324 658 q 283 548 291 608 l 195 -37 m 168 865 q 205 928 174 907 q 276 945 236 948 q 338 910 314 939 q 354 840 361 881 q 318 778 350 798 q 249 765 287 758 q 185 796 209 768 q 168 865 161 824 z "},"k":{"ha":672,"x_min":26,"x_max":663,"o":"m 613 57 q 528 -2 567 6 q 461 8 490 -10 q 408 60 431 26 q 369 131 385 94 l 289 324 l 228 263 l 206 113 q 206 29 198 54 q 217 0 214 3 l 26 0 q 46 27 29 2 q 75 113 64 53 l 185 852 q 184 937 195 912 q 171 966 174 963 l 366 982 q 345 954 362 979 q 319 868 327 929 l 247 394 l 418 564 q 453 620 450 595 q 450 653 457 645 l 663 653 q 647 645 661 651 q 613 627 632 639 q 574 603 594 616 q 541 573 554 589 l 396 428 l 460 259 q 529 109 496 161 q 613 57 562 56 z "},"l":{"ha":313,"x_min":69,"x_max":366,"o":"m 254 22 q 156 -6 193 -5 q 99 7 120 -8 q 73 49 78 22 q 73 109 69 77 l 185 852 q 184 937 195 912 q 171 966 174 963 l 366 982 q 345 954 362 979 q 319 868 327 929 l 204 109 q 204 62 200 80 q 216 37 208 45 q 234 26 223 29 q 254 22 244 22 z "},"m":{"ha":999,"x_min":38,"x_max":972,"o":"m 963 22 q 866 -6 904 -5 q 809 7 829 -8 q 783 49 789 22 q 782 109 777 77 l 832 431 q 821 524 840 490 q 760 556 801 559 q 662 518 701 549 q 618 455 623 487 l 567 113 q 567 29 559 54 q 578 0 575 3 l 386 0 q 408 27 390 2 q 436 113 426 53 l 482 431 q 473 524 492 490 q 410 554 453 557 q 336 531 366 549 q 273 477 307 512 l 219 113 q 218 29 209 54 q 228 0 227 3 l 38 0 q 60 27 42 2 q 86 113 78 53 l 150 540 q 150 624 160 599 q 137 653 140 650 l 292 653 q 291 618 292 643 q 287 570 291 592 q 373 630 330 605 q 463 659 415 655 q 572 638 538 666 q 618 568 605 610 q 717 637 669 618 q 811 659 765 656 q 904 648 870 664 q 955 603 939 632 q 971 533 971 573 q 966 452 972 493 l 915 109 q 913 62 910 80 q 924 37 916 45 q 943 26 932 29 q 963 22 953 22 z "},"n":{"ha":688,"x_min":38,"x_max":656,"o":"m 512 433 q 503 525 522 492 q 441 556 484 559 q 271 476 356 546 l 219 113 q 218 29 209 54 q 228 0 227 3 l 38 0 q 59 27 42 2 q 86 113 77 53 l 150 540 q 150 624 160 599 q 137 653 140 650 l 292 653 q 291 637 292 648 q 290 611 291 626 q 288 583 289 597 q 286 557 287 568 q 389 627 332 597 q 493 661 445 656 q 587 651 552 666 q 637 606 621 635 q 655 537 653 576 q 650 457 656 498 l 595 109 q 595 62 591 80 q 607 37 599 45 q 625 26 615 29 q 643 22 635 22 q 547 -6 584 -5 q 489 7 509 -8 q 465 49 469 22 q 465 109 460 77 l 512 433 l 512 433 z "},"o":{"ha":674,"x_min":56,"x_max":661,"o":"m 61 330 q 96 475 67 412 q 168 580 125 538 q 267 643 212 623 q 383 663 322 664 q 495 635 442 659 q 585 564 548 610 q 642 453 623 519 q 656 307 661 388 q 623 170 651 230 q 552 69 595 110 q 452 8 508 29 q 335 -10 396 -13 q 222 17 275 -8 q 132 86 169 42 q 75 192 94 131 q 61 330 56 254 m 196 324 q 227 148 188 216 q 340 78 265 81 q 463 139 415 75 q 519 313 511 203 q 489 497 528 428 q 377 570 450 567 q 253 507 302 573 q 196 324 204 441 z "},"p":{"ha":685,"x_min":6,"x_max":680,"o":"m 672 337 q 639 194 666 257 q 572 87 613 131 q 480 20 532 43 q 370 -3 428 -3 q 292 3 338 -3 q 216 27 246 10 l 190 -142 q 189 -227 180 -201 q 201 -255 198 -252 l 6 -287 q 27 -260 10 -286 q 53 -174 45 -235 l 161 540 q 160 624 169 599 q 147 653 150 650 l 303 653 q 303 623 303 643 q 299 581 302 603 q 377 642 340 623 q 460 661 413 661 q 623 574 565 661 q 672 337 680 487 m 540 329 q 536 437 544 393 q 508 507 527 481 q 464 545 490 533 q 404 557 437 557 q 336 536 364 557 q 284 485 308 514 l 230 125 q 284 105 252 112 q 343 97 316 97 q 414 111 380 97 q 475 153 449 125 q 518 226 501 182 q 540 329 535 270 z "},"q":{"ha":669,"x_min":77,"x_max":702,"o":"m 370 -287 q 390 -259 374 -284 q 415 -174 407 -233 l 453 75 q 382 14 420 35 q 299 -8 345 -8 q 204 14 246 -8 q 133 78 161 37 q 90 180 104 120 q 81 316 77 241 q 113 455 88 391 q 179 564 139 519 q 268 635 219 610 q 370 661 318 661 q 461 645 417 661 q 532 595 506 629 q 539 631 535 618 q 546 653 543 643 l 702 653 q 682 624 699 650 q 655 540 664 599 l 552 -142 q 552 -228 543 -203 q 565 -255 562 -254 l 370 -287 m 214 324 q 218 216 208 260 q 249 146 228 172 q 296 108 270 120 q 350 96 322 96 q 421 121 390 96 q 468 171 453 145 l 516 496 q 471 541 501 525 q 402 557 441 557 q 279 499 332 557 q 214 324 225 441 z "},"r":{"ha":450,"x_min":38,"x_max":506,"o":"m 463 661 q 485 660 473 661 q 506 656 498 659 l 495 517 q 460 547 482 535 q 412 559 437 559 q 337 541 367 559 q 275 495 307 524 l 217 113 q 218 29 209 54 q 228 0 227 3 l 38 0 q 59 27 42 2 q 85 113 77 53 l 150 540 q 148 624 158 599 q 137 653 139 650 l 292 653 q 291 621 292 643 q 287 576 291 599 q 371 638 326 615 q 463 661 417 661 z "},"s":{"ha":533,"x_min":46,"x_max":527,"o":"m 350 156 q 334 202 353 180 q 287 244 316 223 q 223 288 259 265 q 160 341 188 311 q 116 408 133 370 q 107 495 99 445 q 139 575 115 543 q 198 626 163 607 q 278 654 233 645 q 372 663 322 663 q 463 651 423 663 q 527 627 503 640 l 508 509 q 453 549 493 532 q 367 567 413 567 q 283 553 318 567 q 241 501 247 540 q 256 455 238 476 q 304 413 275 434 q 368 370 334 393 q 430 318 402 346 q 474 251 458 289 q 482 161 490 212 q 451 81 476 113 q 390 29 426 49 q 308 -1 354 8 q 212 -10 262 -10 q 115 2 161 -10 q 46 27 69 14 l 61 164 q 128 110 81 134 q 225 86 174 86 q 311 101 278 86 q 350 156 343 115 z "},"t":{"ha":468,"x_min":67,"x_max":471,"o":"m 458 564 l 295 564 l 244 225 q 257 127 235 158 q 324 96 279 96 q 359 101 340 96 q 395 117 378 107 q 425 137 412 126 q 444 161 439 148 l 428 46 q 358 9 396 26 q 259 -8 321 -8 q 130 53 164 -8 q 110 214 96 115 l 164 564 l 67 564 l 80 653 l 177 653 l 198 787 q 275 809 233 792 q 337 840 316 825 l 310 653 l 471 653 l 458 564 z "},"u":{"ha":694,"x_min":94,"x_max":707,"o":"m 233 225 q 243 130 225 166 q 303 94 262 94 q 389 110 348 94 q 471 158 429 126 l 528 540 q 528 624 536 599 q 516 653 519 650 l 707 653 q 686 626 704 651 q 659 540 669 600 l 595 113 q 597 29 587 54 q 610 0 607 3 l 453 0 q 454 32 453 10 q 458 77 455 54 q 356 16 412 40 q 254 -8 300 -8 q 161 11 195 -8 q 112 61 128 30 q 95 133 96 93 q 101 214 94 172 l 148 540 q 149 624 158 599 q 137 653 140 650 l 327 653 q 307 626 324 651 q 281 540 289 600 l 233 225 z "},"v":{"ha":640,"x_min":83,"x_max":702,"o":"m 247 0 q 245 14 249 0 q 228 82 241 29 q 193 243 216 136 q 134 540 171 351 q 105 624 121 599 q 83 653 88 650 l 283 653 q 279 645 283 651 q 271 625 275 639 q 267 591 268 611 q 273 540 267 570 l 345 196 l 519 540 q 540 591 535 570 q 547 625 546 611 q 545 645 548 639 q 543 653 543 651 l 702 653 q 673 624 698 650 q 619 540 648 599 q 514 334 559 420 q 436 184 469 247 q 379 77 402 121 q 338 0 356 34 l 247 0 l 247 0 z "},"w":{"ha":961,"x_min":83,"x_max":1022,"o":"m 584 0 q 583 14 586 0 q 573 68 581 27 q 551 185 565 109 q 512 388 536 262 l 326 0 l 235 0 q 234 16 236 0 q 221 88 231 32 q 190 251 211 144 q 134 540 169 358 q 105 624 121 599 q 83 653 88 650 l 292 653 q 278 623 291 650 q 273 540 265 597 l 329 195 l 541 653 l 603 653 l 678 195 l 838 540 q 861 624 864 599 q 857 653 859 650 l 1022 653 q 993 624 1019 650 q 939 540 967 599 l 675 0 l 584 0 l 584 0 z "},"x":{"ha":626,"x_min":-2,"x_max":677,"o":"m 401 338 l 503 113 q 556 29 530 54 q 584 0 581 3 l 369 0 q 375 6 370 0 q 382 26 380 13 q 380 61 383 40 q 362 113 377 83 l 313 223 l 227 113 q 195 62 203 83 q 187 28 187 42 q 191 8 187 14 q 195 0 195 2 l -2 0 q 38 29 5 3 q 117 113 70 54 l 271 313 l 171 540 q 121 624 145 599 q 91 653 97 650 l 303 653 q 299 645 303 651 q 294 625 295 639 q 295 591 292 611 q 311 540 299 570 l 361 428 l 447 540 q 480 591 471 570 q 489 627 489 613 q 487 647 490 640 q 482 653 484 653 l 677 653 q 639 624 672 650 q 559 540 605 599 l 401 338 z "},"y":{"ha":639,"x_min":-2,"x_max":714,"o":"m 10 -169 q 69 -176 37 -182 q 133 -148 101 -171 q 198 -84 166 -126 q 259 21 230 -42 q 247 66 255 35 q 224 156 238 97 q 191 309 211 216 q 144 540 171 402 q 114 624 131 599 q 94 653 97 650 l 292 653 q 279 624 289 650 q 284 540 270 599 l 358 196 l 530 540 q 550 591 544 570 q 556 625 556 611 q 556 645 557 639 q 554 653 554 651 l 714 653 q 682 624 707 650 q 629 540 658 599 q 528 338 572 423 q 453 192 485 254 q 398 86 421 129 q 358 10 375 43 q 272 -131 311 -77 q 198 -216 233 -185 q 133 -257 163 -246 q 75 -268 102 -268 q 16 -238 34 -268 q 10 -169 -2 -208 z "},"z":{"ha":517,"x_min":6,"x_max":567,"o":"m 19 78 q 65 140 35 99 q 133 230 96 180 q 212 333 171 279 q 288 433 252 386 q 350 516 324 481 q 385 562 375 551 l 239 562 q 141 551 172 562 q 85 511 110 540 l 109 653 l 567 653 l 559 591 q 516 531 546 572 q 446 439 485 490 q 364 332 407 388 q 283 227 321 276 q 216 140 244 177 q 177 91 187 104 l 335 91 q 393 93 369 91 q 434 100 417 94 q 465 115 452 105 q 490 142 477 125 l 466 0 l 6 0 l 19 78 z "},"{":{"ha":458,"x_min":51,"x_max":525,"o":"m 208 -70 q 265 -164 195 -164 q 329 -161 303 -164 q 370 -145 354 -158 l 346 -239 l 184 -239 q 137 -231 160 -239 q 99 -204 115 -222 q 75 -158 83 -185 q 73 -94 67 -131 l 123 238 q 120 260 123 247 q 108 285 117 273 q 85 305 99 297 q 51 313 72 313 l 62 386 q 105 395 88 386 q 134 416 123 404 q 150 441 145 428 q 156 465 155 455 l 206 795 q 229 859 212 832 q 267 904 246 886 q 314 932 289 923 q 361 940 338 940 l 525 940 l 517 837 q 508 850 511 845 q 496 859 504 856 q 470 864 487 862 q 420 865 453 865 q 366 843 390 865 q 332 757 343 821 l 289 469 q 277 434 286 453 q 254 398 268 415 q 221 370 239 382 q 184 354 203 358 q 243 313 225 342 q 257 252 260 284 l 208 -70 z "},"|":{"ha":262,"x_min":16,"x_max":300,"o":"m 16 -241 l 198 971 l 300 971 l 118 -241 l 16 -241 z "},"}":{"ha":458,"x_min":-21,"x_max":449,"o":"m 216 252 q 247 313 220 284 q 319 354 275 342 q 286 370 300 358 q 262 398 271 382 q 249 434 252 415 q 249 469 246 453 l 291 757 q 285 843 302 821 q 236 865 268 865 q 185 864 203 865 q 158 859 168 862 q 144 850 148 856 q 131 837 139 845 l 153 940 l 318 940 q 362 932 340 940 q 402 904 385 923 q 426 859 418 886 q 429 795 434 832 l 380 465 q 379 441 378 455 q 387 416 380 428 q 409 395 394 404 q 449 386 423 386 l 439 313 q 401 305 417 313 q 373 285 385 297 q 354 260 361 273 q 346 238 348 247 l 295 -94 q 274 -158 291 -131 q 235 -204 257 -185 q 188 -231 212 -222 q 139 -239 163 -239 l -21 -239 l -14 -145 q 21 -161 -3 -158 q 81 -164 45 -164 q 140 -140 120 -164 q 168 -70 160 -117 l 216 252 z "},"~":{"ha":549,"x_min":46,"x_max":575,"o":"m 413 359 q 343 370 375 359 q 284 394 311 382 q 232 417 257 407 q 187 428 208 428 q 145 412 168 428 q 113 359 123 396 l 46 359 q 109 477 64 439 q 204 514 153 514 q 281 504 247 514 q 342 481 314 493 q 393 457 370 468 q 434 447 415 447 q 473 462 452 447 q 506 514 495 477 l 575 514 q 512 397 556 434 q 413 359 468 359 z "},"¡":{"ha":310,"x_min":-22,"x_max":287,"o":"m 136 -297 l -22 -297 l 3 -156 l 126 394 l 193 394 l 155 -156 l 136 -297 m 281 557 q 243 495 275 516 q 174 479 212 474 q 112 514 136 485 q 94 584 88 543 q 131 645 101 626 q 201 659 161 664 q 263 626 239 653 q 281 557 287 599 z "},"¢":{"ha":565,"x_min":46,"x_max":592,"o":"m 196 319 q 221 145 179 211 q 351 80 263 80 q 450 102 401 80 q 535 166 500 125 l 512 38 q 431 6 490 21 q 303 -10 372 -10 q 192 13 243 -10 q 109 77 142 35 q 61 180 75 118 q 59 319 46 241 q 105 463 70 399 q 189 571 140 527 q 297 639 238 615 q 417 663 356 663 q 469 659 442 663 q 519 651 495 656 q 562 640 543 647 q 592 627 581 634 l 575 503 q 518 549 557 528 q 426 570 479 570 q 276 502 338 570 q 196 319 214 434 m 428 798 l 512 798 l 295 -137 l 211 -137 l 428 798 z "},"£":{"ha":648,"x_min":40,"x_max":686,"o":"m 93 479 l 180 479 q 157 568 168 520 q 158 682 147 616 q 194 790 166 741 q 264 876 222 840 q 359 932 307 912 q 471 953 412 953 q 607 937 556 953 q 686 902 659 921 l 666 754 q 607 824 653 795 q 490 852 560 852 q 360 805 407 852 q 302 685 313 757 q 300 575 292 624 q 319 479 308 525 l 532 479 l 520 390 l 335 390 q 337 353 337 372 q 334 314 337 334 q 323 264 329 287 q 306 216 318 241 q 275 165 294 192 q 227 107 255 139 l 434 107 q 533 124 501 107 q 591 174 565 140 l 552 0 l 40 0 l 53 78 q 160 192 125 134 q 204 308 196 249 q 208 350 208 330 q 204 390 208 370 l 80 390 l 93 479 z "},"¥":{"ha":806,"x_min":112,"x_max":905,"o":"m 330 447 l 184 825 q 139 904 163 873 q 112 940 115 936 l 367 940 q 360 930 366 939 q 350 906 354 921 q 346 871 346 891 q 353 825 345 851 l 482 508 l 686 825 q 709 871 702 851 q 715 906 715 891 q 712 930 715 921 q 709 940 709 939 l 905 940 q 865 906 899 936 q 797 825 832 876 l 544 447 l 691 447 l 678 358 l 492 358 l 481 287 l 667 287 l 653 198 l 468 198 l 460 145 q 456 84 453 110 q 463 39 458 57 q 473 11 468 21 q 481 0 479 2 l 259 0 q 269 10 260 0 q 289 37 278 19 q 311 81 300 54 q 327 145 322 109 l 335 198 l 137 198 l 152 287 l 350 287 l 359 358 l 163 358 l 176 447 l 330 447 z "},"¦":{"ha":262,"x_min":16,"x_max":300,"o":"m 16 -241 l 99 308 l 200 308 l 118 -241 l 16 -241 m 217 423 l 115 423 l 198 971 l 300 971 l 217 423 z "},"§":{"ha":618,"x_min":40,"x_max":626,"o":"m 356 73 q 338 121 361 97 q 279 168 314 144 q 200 220 243 193 q 123 281 158 247 q 67 354 88 314 q 54 445 46 394 q 113 548 64 509 q 223 605 161 587 q 176 673 192 637 q 168 755 161 709 q 203 838 176 801 q 269 900 230 875 q 356 937 308 924 q 453 950 404 950 q 543 939 504 950 q 603 915 581 928 l 580 813 q 528 852 567 835 q 444 870 490 870 q 397 863 420 870 q 354 843 374 856 q 322 813 335 830 q 307 779 310 797 q 326 731 302 754 q 387 686 350 709 q 468 636 425 663 q 548 578 511 610 q 605 506 584 546 q 619 415 626 466 q 559 307 608 348 q 444 247 509 265 q 493 96 504 187 q 457 10 485 48 q 389 -52 429 -27 q 299 -90 348 -77 q 201 -104 251 -104 q 107 -92 152 -104 q 40 -67 62 -80 l 61 54 q 122 0 78 24 q 217 -24 166 -24 q 311 4 271 -24 q 356 73 350 32 m 498 383 q 481 429 501 407 q 430 471 461 450 q 361 512 399 492 q 289 554 322 533 q 252 557 271 560 q 217 543 233 554 q 190 516 201 532 q 177 481 179 500 q 193 438 174 460 q 243 394 212 417 q 310 347 273 370 q 380 302 346 324 q 419 299 399 294 q 456 316 439 303 q 484 346 473 329 q 498 383 495 364 z "},"¨":{"ha":535,"x_min":120,"x_max":536,"o":"m 126 846 q 161 913 134 888 q 222 939 188 939 q 274 913 254 939 q 287 846 294 888 q 254 781 281 805 q 195 757 227 757 q 140 781 161 757 q 126 846 120 805 m 369 846 q 404 913 377 888 q 465 939 431 939 q 516 913 496 939 q 530 846 536 888 q 496 781 524 805 q 437 757 469 757 q 383 781 404 757 q 369 846 362 805 z "},"©":{"ha":956,"x_min":54,"x_max":972,"o":"m 72 465 q 139 672 89 581 q 258 825 188 763 q 412 920 327 888 q 586 953 496 953 q 754 920 678 953 q 880 825 830 888 q 951 672 931 763 q 955 465 972 581 q 889 268 937 356 q 772 119 841 180 q 617 24 702 57 q 441 -10 532 -10 q 276 24 351 -10 q 150 119 201 57 q 77 268 99 180 q 72 465 54 356 m 169 465 q 172 304 156 377 q 224 180 187 231 q 321 99 262 128 q 455 70 380 70 q 599 99 532 70 q 718 180 666 128 q 807 304 771 231 q 856 465 843 377 q 856 632 870 557 q 805 760 843 707 q 710 841 768 813 q 575 868 651 868 q 432 841 500 868 q 311 760 364 813 q 220 632 257 707 q 169 465 184 557 m 386 468 q 407 310 370 366 q 511 254 444 254 q 591 270 549 254 q 656 318 634 286 l 640 214 q 573 187 613 196 q 489 177 533 177 q 397 197 439 177 q 325 255 354 217 q 283 347 295 294 q 281 468 271 401 q 321 595 291 540 q 393 690 351 651 q 483 748 434 728 q 580 768 532 768 q 663 758 631 768 q 714 736 696 749 l 698 629 q 657 673 686 656 q 576 690 627 690 q 454 633 504 690 q 386 468 404 576 z "},"ª":{"ha":457,"x_min":67,"x_max":476,"o":"m 369 806 q 356 873 375 849 q 294 897 337 897 q 215 882 247 897 q 158 848 182 867 l 171 937 q 235 955 193 945 q 314 966 278 966 q 432 928 388 966 q 463 797 476 889 l 428 564 q 427 502 420 520 q 436 481 434 484 l 322 481 q 323 499 324 485 q 324 520 322 512 q 270 489 302 503 q 198 474 238 474 q 102 510 137 474 q 77 605 67 546 q 111 684 83 651 q 179 738 139 717 q 267 769 219 758 q 364 781 316 779 l 369 806 m 174 615 q 191 561 169 578 q 244 544 212 544 q 295 554 271 544 q 334 580 318 564 l 354 720 q 298 714 327 720 q 242 696 268 709 q 197 663 216 683 q 174 615 179 643 z "},"«":{"ha":790,"x_min":78,"x_max":808,"o":"m 474 702 l 460 597 l 220 426 l 409 255 l 391 150 l 78 390 l 89 463 l 474 702 m 808 702 l 793 597 l 554 426 l 742 255 l 725 150 l 412 390 l 423 463 l 808 702 z "},"¬":{"ha":688,"x_min":105,"x_max":663,"o":"m 120 495 l 663 495 l 619 195 l 519 195 l 548 390 l 105 390 l 120 495 z "},"­":{"ha":538,"x_min":89,"x_max":501,"o":"m 107 399 l 501 399 l 484 294 l 89 294 l 107 399 z "},"®":{"ha":956,"x_min":54,"x_max":972,"o":"m 72 465 q 139 672 89 581 q 258 825 188 763 q 412 920 327 888 q 586 953 496 953 q 754 920 678 953 q 880 825 830 888 q 951 672 931 763 q 955 465 972 581 q 889 268 937 356 q 772 119 841 180 q 617 24 702 57 q 441 -10 532 -10 q 276 24 351 -10 q 150 119 201 57 q 77 268 99 180 q 72 465 54 356 m 169 465 q 172 304 156 377 q 224 180 187 231 q 321 99 262 128 q 455 70 380 70 q 599 99 532 70 q 718 180 666 128 q 807 304 771 231 q 856 465 843 377 q 856 632 870 557 q 805 760 843 707 q 710 841 768 813 q 575 868 651 868 q 432 841 500 868 q 311 760 364 813 q 220 632 257 707 q 169 465 184 557 m 436 420 l 412 273 q 409 208 407 230 q 410 184 410 187 l 289 184 q 300 206 292 185 q 316 273 308 227 l 377 672 q 382 737 383 715 q 378 761 380 758 l 512 761 q 650 720 599 761 q 686 587 701 678 q 649 489 678 533 q 580 433 619 444 l 642 254 q 664 206 655 222 q 682 184 674 190 l 532 184 q 543 205 540 190 q 532 254 546 220 l 471 420 l 436 420 m 474 686 l 445 492 l 465 492 q 514 500 493 492 q 548 524 535 509 q 568 555 562 538 q 578 587 575 572 q 569 656 584 626 q 501 686 554 686 l 474 686 z "},"°":{"ha":481,"x_min":77,"x_max":504,"o":"m 91 738 q 121 834 99 792 q 176 906 144 876 q 247 951 208 936 q 327 966 286 966 q 403 951 369 966 q 461 906 437 936 q 494 834 484 876 q 496 738 504 792 q 466 648 489 688 q 412 580 444 608 q 341 537 380 552 q 260 522 302 522 q 127 580 177 522 q 91 738 77 637 m 184 738 q 197 637 174 678 q 271 595 220 595 q 358 637 322 595 q 404 738 394 678 q 389 846 412 803 q 316 889 366 889 q 229 845 265 889 q 184 738 193 801 z "},"±":{"ha":699,"x_min":43,"x_max":701,"o":"m 501 797 l 463 546 l 701 546 l 683 441 l 445 441 l 410 190 l 310 190 l 346 441 l 107 441 l 125 546 l 362 546 l 401 797 l 501 797 m 634 105 l 619 0 l 43 0 l 57 105 l 634 105 z "},"²":{"ha":351,"x_min":51,"x_max":383,"o":"m 375 832 q 362 793 372 813 q 326 742 351 773 q 259 660 302 710 q 144 532 216 610 l 262 532 q 312 540 297 532 q 340 565 327 548 l 321 479 l 51 479 l 59 525 q 144 623 102 576 q 221 708 187 669 q 278 779 255 747 q 303 835 300 811 q 291 881 307 859 q 231 904 275 904 q 170 889 198 904 q 131 854 142 875 l 140 928 q 187 945 158 937 q 257 953 216 953 q 350 919 316 953 q 375 832 383 884 z "},"³":{"ha":351,"x_min":67,"x_max":385,"o":"m 343 608 q 322 552 338 578 q 284 508 307 527 q 234 480 262 490 q 176 469 206 469 q 108 477 134 469 q 67 495 81 485 l 78 570 q 108 535 85 549 q 168 520 131 520 q 236 546 209 520 q 268 605 263 572 q 258 666 275 639 q 182 696 241 693 l 145 696 l 153 744 l 190 744 q 274 773 249 746 q 303 833 299 800 q 290 880 307 857 q 231 902 273 902 q 169 888 196 902 q 129 852 142 873 l 139 928 q 186 945 158 937 q 257 953 214 953 q 350 918 316 953 q 377 830 385 883 q 348 769 372 803 q 278 720 324 734 q 312 700 299 714 q 333 670 326 686 q 342 638 340 655 q 343 608 345 621 z "},"´":{"ha":337,"x_min":190,"x_max":498,"o":"m 498 937 q 467 876 493 907 q 407 821 441 846 q 339 774 374 795 q 284 742 305 754 l 190 742 q 236 784 211 758 q 286 837 262 809 q 327 892 310 865 q 348 937 345 920 l 423 937 l 498 937 l 498 937 z "},"µ":{"ha":694,"x_min":11,"x_max":717,"o":"m 160 540 q 157 624 166 599 q 147 653 148 650 l 338 653 q 318 626 335 651 q 291 540 300 600 l 243 225 q 253 130 235 166 q 313 94 271 94 q 481 158 398 94 l 538 540 q 538 624 546 599 q 527 653 530 650 l 717 653 q 697 626 714 651 q 670 540 680 600 l 605 113 q 607 29 597 54 q 619 0 616 3 l 463 0 q 465 32 463 10 q 469 77 466 54 q 366 16 423 40 q 262 -8 308 -8 q 211 -3 231 -8 l 187 -158 q 188 -243 179 -217 q 198 -271 196 -268 l 11 -271 q 32 -244 14 -270 q 57 -158 49 -219 l 160 540 z "},"¶":{"ha":715,"x_min":83,"x_max":782,"o":"m 575 862 l 410 -233 l 332 -233 l 421 367 l 370 367 q 150 438 217 367 q 104 645 83 509 q 216 873 128 806 q 457 940 303 940 l 782 940 l 607 -233 l 530 -233 l 694 862 l 575 862 z "},"·":{"ha":279,"x_min":93,"x_max":267,"o":"m 99 479 q 133 546 105 520 q 193 572 160 572 q 246 546 225 572 q 259 479 267 520 q 226 413 254 437 q 166 390 198 390 q 113 413 133 390 q 99 479 93 437 z "},"¸":{"ha":350,"x_min":13,"x_max":303,"o":"m 223 11 q 206 -21 214 -5 q 190 -47 198 -34 q 179 -69 182 -61 q 200 -69 179 -67 q 246 -84 222 -72 q 287 -121 270 -96 q 295 -195 303 -147 q 243 -311 284 -270 q 155 -375 201 -353 q 37 -407 102 -401 l 13 -362 q 93 -340 56 -358 q 152 -298 125 -326 q 187 -223 179 -270 q 174 -167 193 -184 q 128 -147 155 -150 q 56 -150 97 -142 q 105 -70 83 -105 q 123 -42 115 -56 q 139 -14 131 -27 q 155 11 147 0 l 223 11 z "},"¹":{"ha":350,"x_min":153,"x_max":313,"o":"m 177 875 l 289 940 l 313 940 q 297 868 308 939 l 251 551 q 251 498 244 516 q 260 479 259 481 l 153 479 q 167 496 155 479 q 185 551 179 514 l 225 813 q 227 842 227 833 q 223 853 228 851 q 207 852 219 856 q 172 843 195 848 l 177 875 z "},"º":{"ha":514,"x_min":81,"x_max":540,"o":"m 89 712 q 122 819 97 771 q 182 899 147 867 q 260 948 217 931 q 350 966 303 966 q 431 948 394 966 q 493 899 468 931 q 529 819 519 867 q 532 712 540 771 q 497 611 522 656 q 438 536 473 567 q 362 488 404 504 q 275 471 319 471 q 192 488 230 471 q 129 536 155 504 q 93 611 104 567 q 89 712 81 656 m 190 712 q 202 584 177 632 q 283 536 227 536 q 377 584 337 536 q 429 712 417 632 q 417 848 442 798 q 337 897 393 897 q 242 848 281 897 q 190 712 203 798 z "},"»":{"ha":790,"x_min":43,"x_max":773,"o":"m 773 463 l 761 390 l 377 150 l 393 255 l 632 426 l 444 597 l 460 702 l 773 463 m 439 463 l 428 390 l 43 150 l 59 255 l 299 426 l 110 597 l 126 702 l 439 463 z "},"¼":{"ha":837,"x_min":-6,"x_max":852,"o":"m 93 0 l -6 0 q 7 18 -2 6 q 41 59 16 29 q 113 148 65 89 q 242 308 160 206 q 447 564 324 410 q 747 940 570 718 l 852 940 l 93 0 m 163 875 l 275 940 l 297 940 q 283 868 292 937 l 235 551 q 237 498 230 516 q 246 479 244 481 l 137 479 q 152 496 139 479 q 169 551 164 514 l 209 813 q 213 842 212 833 q 209 853 214 851 q 192 852 204 856 q 158 843 180 848 l 163 875 m 774 129 l 712 129 l 702 70 q 705 19 698 37 q 714 0 712 2 l 605 0 q 619 18 607 0 q 637 70 632 35 l 647 129 l 466 129 l 471 172 l 706 460 l 765 460 q 750 390 760 455 l 718 180 q 758 185 739 180 q 789 204 777 190 l 774 129 m 683 380 q 658 342 678 372 q 611 279 637 313 q 562 217 586 246 q 530 182 538 188 l 653 180 l 683 380 z "},"½":{"ha":837,"x_min":-6,"x_max":852,"o":"m 93 0 l -6 0 q 7 18 -2 6 q 41 59 16 29 q 113 148 65 89 q 242 308 160 206 q 447 564 324 410 q 747 940 570 718 l 852 940 l 93 0 m 805 353 q 792 314 801 334 q 758 263 782 294 q 689 181 733 231 q 573 53 645 131 l 691 53 q 742 61 726 53 q 771 86 758 69 l 750 0 l 481 0 l 490 46 q 576 144 533 97 q 651 229 618 190 q 707 300 685 268 q 734 356 730 332 q 720 402 738 380 q 661 425 702 425 q 600 410 627 425 q 560 375 573 396 l 572 449 q 616 466 589 458 q 685 474 643 474 q 779 440 746 474 q 805 353 813 405 m 163 875 l 275 940 l 297 940 q 283 868 292 937 l 235 551 q 237 498 230 516 q 246 479 244 481 l 137 479 q 152 496 139 479 q 169 551 164 514 l 209 813 q 213 842 212 833 q 209 853 214 851 q 192 852 204 856 q 158 843 180 848 l 163 875 z "},"¾":{"ha":837,"x_min":22,"x_max":881,"o":"m 123 0 l 22 0 q 38 18 29 6 q 71 59 46 29 q 142 148 96 89 q 271 308 188 206 q 476 564 353 410 q 776 940 599 718 l 881 940 l 123 0 m 774 129 l 712 129 l 702 70 q 704 19 696 37 q 714 0 712 2 l 605 0 q 619 18 607 0 q 637 70 631 35 l 647 129 l 466 129 l 471 172 l 706 460 l 765 460 q 750 390 760 457 l 718 180 q 758 185 739 180 q 789 204 776 190 l 774 129 m 683 380 q 657 342 678 372 q 610 279 635 313 q 561 217 584 246 q 530 182 538 188 l 653 180 l 683 380 m 359 608 q 339 552 354 578 q 301 508 324 527 q 250 480 278 490 q 193 469 222 469 q 126 477 152 469 q 85 495 101 485 l 96 570 q 126 535 104 549 q 185 520 148 520 q 254 546 227 520 q 287 605 281 572 q 275 666 291 639 q 200 696 260 693 l 164 696 l 171 744 l 208 744 q 292 773 268 746 q 321 833 316 800 q 307 880 324 857 q 249 902 291 902 q 185 888 212 902 q 145 852 158 873 l 158 928 q 204 945 176 937 q 273 953 231 953 q 366 918 332 953 q 393 830 401 883 q 365 769 390 803 q 294 720 340 734 q 329 700 314 714 q 350 670 343 686 q 359 638 358 655 q 359 608 361 621 z "},"¿":{"ha":567,"x_min":93,"x_max":589,"o":"m 506 356 q 475 252 498 297 q 422 172 452 208 q 362 109 393 137 q 303 51 330 80 q 259 -8 276 22 q 241 -77 243 -38 q 263 -160 238 -123 q 354 -196 287 -196 q 414 -189 383 -196 q 473 -169 445 -182 q 523 -138 501 -156 q 556 -97 544 -120 l 533 -246 q 434 -283 487 -268 q 322 -297 382 -297 q 154 -235 216 -297 q 96 -67 93 -172 q 120 23 97 -16 q 175 95 142 62 q 246 156 208 128 q 318 215 284 185 q 378 279 353 244 q 409 356 402 313 l 417 401 l 514 401 l 506 356 m 583 564 q 545 501 576 522 q 476 485 514 481 q 413 520 437 492 q 396 591 390 549 q 433 651 402 632 q 503 666 463 670 q 565 632 541 659 q 583 564 589 605 z "},"À":{"ha":894,"x_min":-18,"x_max":849,"o":"m 594 330 l 291 330 l 204 145 q 183 78 185 105 q 186 34 180 51 q 200 10 192 18 q 208 0 208 2 l -18 0 q 22 38 -13 3 q 94 145 57 73 l 407 793 q 421 829 415 808 q 428 869 426 849 q 423 908 429 889 q 401 940 417 928 l 618 940 q 619 928 616 940 q 630 885 623 916 q 649 799 637 854 q 680 655 661 744 q 724 441 699 567 q 782 145 749 316 q 799 84 789 110 q 821 40 809 57 q 840 12 832 22 q 849 0 848 2 l 589 0 q 599 9 591 2 q 617 33 608 16 q 631 77 626 49 q 627 145 635 104 l 594 330 m 338 431 l 575 431 l 504 776 l 338 431 m 382 1224 l 457 1224 q 463 1180 453 1207 q 488 1125 473 1153 q 521 1071 503 1097 q 554 1030 540 1046 l 460 1030 q 415 1062 442 1041 q 362 1108 388 1082 q 319 1164 337 1133 q 307 1224 302 1194 l 382 1224 z "},"Á":{"ha":894,"x_min":-18,"x_max":849,"o":"m 594 330 l 291 330 l 204 145 q 183 78 185 105 q 186 34 180 51 q 200 10 192 18 q 208 0 208 2 l -18 0 q 22 38 -13 3 q 94 145 57 73 l 407 793 q 421 829 415 808 q 428 869 426 849 q 423 908 429 889 q 401 940 417 928 l 618 940 q 619 928 616 940 q 630 885 623 916 q 649 799 637 854 q 680 655 661 744 q 724 441 699 567 q 782 145 749 316 q 799 84 789 110 q 821 40 809 57 q 840 12 832 22 q 849 0 848 2 l 589 0 q 599 9 591 2 q 617 33 608 16 q 631 77 626 49 q 627 145 635 104 l 594 330 m 338 431 l 575 431 l 504 776 l 338 431 m 766 1224 q 735 1164 761 1194 q 675 1108 709 1133 q 607 1062 642 1082 q 552 1030 573 1041 l 458 1030 q 504 1071 479 1046 q 554 1125 530 1097 q 595 1180 578 1153 q 616 1224 613 1207 l 691 1224 l 766 1224 l 766 1224 z "},"Â":{"ha":894,"x_min":-18,"x_max":849,"o":"m 594 330 l 291 330 l 204 145 q 183 78 185 105 q 186 34 180 51 q 200 10 192 18 q 208 0 208 2 l -18 0 q 22 38 -13 3 q 94 145 57 73 l 407 793 q 421 829 415 808 q 428 869 426 849 q 423 908 429 889 q 401 940 417 928 l 618 940 q 619 928 616 940 q 630 885 623 916 q 649 799 637 854 q 680 655 661 744 q 724 441 699 567 q 782 145 749 316 q 799 84 789 110 q 821 40 809 57 q 840 12 832 22 q 849 0 848 2 l 589 0 q 599 9 591 2 q 617 33 608 16 q 631 77 626 49 q 627 145 635 104 l 594 330 m 338 431 l 575 431 l 504 776 l 338 431 m 562 1224 q 597 1177 575 1208 q 644 1113 619 1146 q 694 1047 669 1079 q 736 998 718 1015 l 642 998 q 593 1041 623 1014 q 532 1100 564 1068 q 452 1041 490 1068 q 390 998 413 1014 l 295 998 q 341 1038 313 1012 q 402 1096 369 1065 q 468 1161 434 1127 q 532 1224 501 1196 l 562 1224 z "},"Ã":{"ha":894,"x_min":-18,"x_max":849,"o":"m 594 330 l 291 330 l 204 145 q 183 78 185 105 q 186 34 180 51 q 200 10 192 18 q 208 0 208 2 l -18 0 q 22 38 -13 3 q 94 145 57 73 l 407 793 q 421 829 415 808 q 428 869 426 849 q 423 908 429 889 q 401 940 417 928 l 618 940 q 619 928 616 940 q 630 885 623 916 q 649 799 637 854 q 680 655 661 744 q 724 441 699 567 q 782 145 749 316 q 799 84 789 110 q 821 40 809 57 q 840 12 832 22 q 849 0 848 2 l 589 0 q 599 9 591 2 q 617 33 608 16 q 631 77 626 49 q 627 145 635 104 l 594 330 m 338 431 l 575 431 l 504 776 l 338 431 m 618 1014 q 564 1023 595 1014 q 514 1050 533 1031 q 479 1074 498 1065 q 441 1080 460 1082 q 405 1062 421 1078 q 378 1014 388 1047 l 311 1014 q 374 1131 329 1094 q 471 1169 420 1169 q 522 1159 493 1169 q 573 1132 551 1149 q 609 1109 589 1116 q 649 1106 629 1102 q 686 1125 669 1110 q 712 1169 702 1140 l 781 1169 q 717 1051 761 1089 q 618 1014 672 1014 z "},"Ä":{"ha":894,"x_min":-18,"x_max":849,"o":"m 594 330 l 291 330 l 204 145 q 183 78 185 105 q 186 34 180 51 q 200 10 192 18 q 208 0 208 2 l -18 0 q 22 38 -13 3 q 94 145 57 73 l 407 793 q 421 829 415 808 q 428 869 426 849 q 423 908 429 889 q 401 940 417 928 l 618 940 q 619 928 616 940 q 630 885 623 916 q 649 799 637 854 q 680 655 661 744 q 724 441 699 567 q 782 145 749 316 q 799 84 789 110 q 821 40 809 57 q 840 12 832 22 q 849 0 848 2 l 589 0 q 599 9 591 2 q 617 33 608 16 q 631 77 626 49 q 627 145 635 104 l 594 330 m 338 431 l 575 431 l 504 776 l 338 431 m 330 1117 q 366 1185 338 1159 q 426 1210 393 1210 q 478 1185 458 1210 q 492 1117 498 1159 q 458 1052 485 1076 q 399 1028 431 1028 q 345 1052 366 1028 q 330 1117 324 1076 m 573 1117 q 608 1185 581 1159 q 669 1210 635 1210 q 721 1185 701 1210 q 734 1117 741 1159 q 701 1052 728 1076 q 642 1028 674 1028 q 587 1052 608 1028 q 573 1117 567 1076 z "},"Å":{"ha":894,"x_min":-18,"x_max":849,"o":"m 594 330 l 291 330 l 204 145 q 183 78 185 105 q 186 34 180 51 q 200 10 192 18 q 208 0 208 2 l -18 0 q 22 38 -13 3 q 94 145 57 73 l 407 793 q 421 829 415 808 q 428 869 426 849 q 423 908 429 889 q 401 940 417 928 l 618 940 q 619 928 616 940 q 630 885 623 916 q 649 799 637 854 q 680 655 661 744 q 724 441 699 567 q 782 145 749 316 q 799 84 789 110 q 821 40 809 57 q 840 12 832 22 q 849 0 848 2 l 589 0 q 599 9 591 2 q 617 33 608 16 q 631 77 626 49 q 627 145 635 104 l 594 330 m 338 431 l 575 431 l 504 776 l 338 431 m 402 1114 q 449 1199 410 1164 q 535 1234 489 1234 q 610 1199 581 1234 q 631 1114 639 1164 q 615 1068 627 1090 q 584 1030 602 1046 q 544 1004 567 1014 q 498 995 522 995 q 424 1030 452 995 q 402 1114 396 1065 m 457 1114 q 469 1070 453 1089 q 508 1052 484 1052 q 552 1070 532 1052 q 576 1114 573 1089 q 564 1158 580 1140 q 525 1177 549 1177 q 481 1158 501 1177 q 457 1114 461 1140 z "},"Æ":{"ha":1097,"x_min":-16,"x_max":1161,"o":"m 1017 0 l 508 0 q 518 10 509 0 q 538 37 527 19 q 560 81 549 54 q 576 145 572 109 l 603 330 l 345 330 l 228 145 q 195 78 201 105 q 191 34 188 51 q 200 10 193 18 q 208 0 208 2 l -16 0 q 30 39 -10 3 q 117 145 70 75 l 533 793 q 554 829 544 808 q 568 869 564 849 q 568 908 572 889 q 551 940 565 928 l 1161 940 l 1141 773 q 1102 817 1132 801 q 1004 833 1071 833 l 811 833 l 766 535 l 961 535 q 1010 542 988 535 q 1046 557 1031 549 q 1070 573 1062 565 q 1079 583 1078 581 l 1050 388 q 1042 397 1049 390 q 1024 412 1036 404 q 993 427 1012 420 q 947 434 974 434 l 750 434 l 702 107 l 896 107 q 994 124 963 107 q 1050 174 1025 140 l 1017 0 m 407 431 l 619 431 l 680 833 l 667 833 l 407 431 z "},"Ç":{"ha":761,"x_min":54,"x_max":817,"o":"m 225 465 q 234 312 216 382 q 289 193 252 243 q 378 116 326 144 q 487 88 429 88 q 616 115 554 88 q 718 195 678 142 l 698 49 q 591 6 648 21 q 455 -10 533 -10 q 295 24 370 -10 q 164 119 219 57 q 82 268 110 180 q 65 465 54 356 q 124 672 77 581 q 239 825 171 763 q 390 920 308 888 q 556 953 473 953 q 715 937 645 953 q 817 902 785 921 l 795 754 q 713 826 776 800 q 562 852 650 852 q 443 825 500 852 q 341 746 386 797 q 265 624 295 696 q 225 465 235 552 m 498 11 q 481 -21 489 -5 q 465 -47 473 -34 q 453 -69 457 -61 q 475 -69 453 -67 q 520 -84 496 -72 q 561 -121 544 -96 q 570 -195 578 -147 q 517 -311 559 -270 q 429 -375 476 -353 q 311 -407 377 -401 l 287 -362 q 367 -340 330 -358 q 426 -298 399 -326 q 461 -223 453 -270 q 449 -167 468 -184 q 402 -147 429 -150 q 330 -150 372 -142 q 380 -70 358 -105 q 398 -42 390 -56 q 413 -14 405 -27 q 429 11 421 0 l 498 11 z "},"È":{"ha":602,"x_min":13,"x_max":664,"o":"m 520 0 l 13 0 q 23 10 14 0 q 42 37 32 19 q 64 81 53 54 q 80 145 75 109 l 177 795 q 181 859 184 832 q 173 904 179 886 q 161 931 168 921 q 155 940 155 940 l 664 940 l 647 773 q 605 817 635 801 q 508 833 575 833 l 316 833 l 270 535 l 466 535 q 514 542 493 535 q 550 557 535 549 q 574 573 565 565 q 584 583 583 581 l 556 388 q 548 397 554 390 q 529 412 541 404 q 497 427 517 420 q 450 434 477 434 l 255 434 l 206 107 l 399 107 q 498 124 466 107 q 556 174 530 140 l 520 0 m 326 1224 l 401 1224 q 407 1180 398 1207 q 432 1125 417 1153 q 465 1071 447 1097 q 498 1030 484 1046 l 404 1030 q 359 1062 386 1041 q 307 1108 332 1082 q 263 1164 281 1133 q 251 1224 246 1194 l 326 1224 z "},"É":{"ha":602,"x_min":13,"x_max":664,"o":"m 520 0 l 13 0 q 23 10 14 0 q 42 37 32 19 q 64 81 53 54 q 80 145 75 109 l 177 795 q 181 859 184 832 q 173 904 179 886 q 161 931 168 921 q 155 940 155 940 l 664 940 l 647 773 q 605 817 635 801 q 508 833 575 833 l 316 833 l 270 535 l 466 535 q 514 542 493 535 q 550 557 535 549 q 574 573 565 565 q 584 583 583 581 l 556 388 q 548 397 554 390 q 529 412 541 404 q 497 427 517 420 q 450 434 477 434 l 255 434 l 206 107 l 399 107 q 498 124 466 107 q 556 174 530 140 l 520 0 m 635 1224 q 604 1164 631 1194 q 544 1108 578 1133 q 477 1062 511 1082 q 421 1030 442 1041 l 327 1030 q 374 1071 348 1046 q 423 1125 399 1097 q 465 1180 447 1153 q 485 1224 482 1207 l 560 1224 l 635 1224 l 635 1224 z "},"Ê":{"ha":602,"x_min":13,"x_max":664,"o":"m 520 0 l 13 0 q 23 10 14 0 q 42 37 32 19 q 64 81 53 54 q 80 145 75 109 l 177 795 q 181 859 184 832 q 173 904 179 886 q 161 931 168 921 q 155 940 155 940 l 664 940 l 647 773 q 605 817 635 801 q 508 833 575 833 l 316 833 l 270 535 l 466 535 q 514 542 493 535 q 550 557 535 549 q 574 573 565 565 q 584 583 583 581 l 556 388 q 548 397 554 390 q 529 412 541 404 q 497 427 517 420 q 450 434 477 434 l 255 434 l 206 107 l 399 107 q 498 124 466 107 q 556 174 530 140 l 520 0 m 433 1240 q 468 1193 445 1224 q 515 1129 490 1162 q 564 1063 540 1095 q 607 1014 589 1031 l 512 1014 q 464 1057 493 1030 q 402 1116 434 1084 q 322 1057 361 1084 q 260 1014 284 1030 l 166 1014 q 212 1054 184 1028 q 272 1112 239 1081 q 338 1177 305 1143 q 402 1240 372 1212 l 433 1240 z "},"Ë":{"ha":602,"x_min":13,"x_max":664,"o":"m 520 0 l 13 0 q 23 10 14 0 q 42 37 32 19 q 64 81 53 54 q 80 145 75 109 l 177 795 q 181 859 184 832 q 173 904 179 886 q 161 931 168 921 q 155 940 155 940 l 664 940 l 647 773 q 605 817 635 801 q 508 833 575 833 l 316 833 l 270 535 l 466 535 q 514 542 493 535 q 550 557 535 549 q 574 573 565 565 q 584 583 583 581 l 556 388 q 548 397 554 390 q 529 412 541 404 q 497 427 517 420 q 450 434 477 434 l 255 434 l 206 107 l 399 107 q 498 124 466 107 q 556 174 530 140 l 520 0 m 216 1117 q 251 1185 223 1159 q 311 1210 278 1210 q 363 1185 343 1210 q 377 1117 383 1159 q 343 1052 370 1076 q 284 1028 316 1028 q 230 1052 251 1028 q 216 1117 209 1076 m 458 1117 q 493 1185 466 1159 q 554 1210 520 1210 q 606 1185 586 1210 q 619 1117 626 1159 q 586 1052 613 1076 q 527 1028 559 1028 q 473 1052 493 1028 q 458 1117 452 1076 z "},"Ì":{"ha":311,"x_min":13,"x_max":377,"o":"m 212 145 q 209 84 208 110 q 216 39 211 57 q 226 11 220 21 q 233 0 231 2 l 13 0 q 23 10 14 0 q 42 37 32 19 q 64 81 53 54 q 80 145 75 109 l 177 795 q 180 856 182 830 q 172 901 177 883 q 162 929 168 920 q 155 940 156 939 l 377 940 q 366 929 375 939 q 346 902 358 920 q 325 857 335 884 q 310 795 314 830 l 212 145 m 133 1208 l 208 1208 q 214 1164 204 1191 q 239 1109 223 1137 q 272 1055 254 1081 q 305 1014 291 1030 l 211 1014 q 166 1046 193 1025 q 113 1092 139 1066 q 70 1148 88 1117 q 57 1208 53 1178 l 133 1208 z "},"Í":{"ha":311,"x_min":13,"x_max":485,"o":"m 212 145 q 209 84 208 110 q 216 39 211 57 q 226 11 220 21 q 233 0 231 2 l 13 0 q 23 10 14 0 q 42 37 32 19 q 64 81 53 54 q 80 145 75 109 l 177 795 q 180 856 182 830 q 172 901 177 883 q 162 929 168 920 q 155 940 156 939 l 377 940 q 366 929 375 939 q 346 902 358 920 q 325 857 335 884 q 310 795 314 830 l 212 145 m 485 1208 q 454 1148 481 1178 q 394 1092 428 1117 q 326 1046 361 1066 q 271 1014 292 1025 l 177 1014 q 223 1055 198 1030 q 273 1109 249 1081 q 314 1164 297 1137 q 335 1208 332 1191 l 410 1208 l 485 1208 l 485 1208 z "},"Î":{"ha":311,"x_min":13,"x_max":465,"o":"m 212 145 q 209 84 208 110 q 216 39 211 57 q 226 11 220 21 q 233 0 231 2 l 13 0 q 23 10 14 0 q 42 37 32 19 q 64 81 53 54 q 80 145 75 109 l 177 795 q 180 856 182 830 q 172 901 177 883 q 162 929 168 920 q 155 940 156 939 l 377 940 q 366 929 375 939 q 346 902 358 920 q 325 857 335 884 q 310 795 314 830 l 212 145 m 291 1240 q 326 1193 303 1224 q 373 1129 348 1162 q 422 1063 398 1095 q 465 1014 447 1031 l 370 1014 q 322 1057 351 1030 q 260 1116 292 1084 q 180 1057 219 1084 q 118 1014 142 1030 l 24 1014 q 69 1054 42 1028 q 130 1112 97 1081 q 196 1177 163 1143 q 260 1240 230 1212 l 291 1240 z "},"Ï":{"ha":311,"x_min":13,"x_max":468,"o":"m 212 145 q 209 84 208 110 q 216 39 211 57 q 226 11 220 21 q 233 0 231 2 l 13 0 q 23 10 14 0 q 42 37 32 19 q 64 81 53 54 q 80 145 75 109 l 177 795 q 180 856 182 830 q 172 901 177 883 q 162 929 168 920 q 155 940 156 939 l 377 940 q 366 929 375 939 q 346 902 358 920 q 325 857 335 884 q 310 795 314 830 l 212 145 m 57 1117 q 93 1185 65 1159 q 153 1210 120 1210 q 205 1185 185 1210 q 219 1117 225 1159 q 185 1052 212 1076 q 126 1028 158 1028 q 72 1052 93 1028 q 57 1117 51 1076 m 300 1117 q 335 1185 308 1159 q 396 1210 362 1210 q 448 1185 428 1210 q 461 1117 468 1159 q 428 1052 455 1076 q 369 1028 401 1028 q 314 1052 335 1028 q 300 1117 294 1076 z "},"Ð":{"ha":860,"x_min":56,"x_max":868,"o":"m 73 528 l 185 528 l 225 795 q 227 856 230 830 q 220 901 225 883 q 208 929 214 920 q 201 940 203 939 l 468 940 q 630 909 556 940 q 758 818 704 878 q 841 670 813 758 q 864 465 868 581 q 820 270 857 356 q 722 124 782 184 q 583 32 663 64 q 417 0 504 0 l 59 0 q 89 37 62 2 q 128 145 115 72 l 168 423 l 56 423 l 73 528 m 362 833 l 318 528 l 468 528 l 450 423 l 300 423 l 252 102 l 425 102 q 535 128 484 102 q 623 200 586 153 q 684 314 661 247 q 712 465 707 382 q 651 738 720 642 q 463 833 583 833 l 362 833 z "},"Ñ":{"ha":838,"x_min":8,"x_max":907,"o":"m 718 0 l 645 0 q 619 47 645 0 q 552 166 592 94 q 463 323 511 238 q 373 485 415 409 q 300 616 330 560 q 265 686 270 672 l 185 145 q 181 84 179 110 q 188 39 184 57 q 199 11 193 21 q 206 0 204 2 l 8 0 q 38 37 11 2 q 77 145 64 72 l 172 795 q 175 856 177 830 q 168 901 172 883 q 157 929 163 920 q 150 940 152 939 l 287 940 q 311 896 286 939 q 374 788 335 854 q 457 643 412 722 q 544 490 503 564 q 616 359 586 417 q 655 278 647 302 l 733 795 q 735 856 738 830 q 728 901 733 883 q 718 929 723 920 q 710 940 712 939 l 907 940 q 896 929 905 939 q 877 902 888 920 q 856 857 867 884 q 840 795 846 830 l 718 0 m 591 1014 q 537 1023 568 1014 q 487 1050 506 1031 q 452 1074 471 1065 q 413 1080 433 1082 q 378 1062 394 1078 q 351 1014 361 1047 l 284 1014 q 347 1131 302 1094 q 444 1169 393 1169 q 495 1159 466 1169 q 546 1132 524 1149 q 582 1109 562 1116 q 622 1106 602 1102 q 659 1125 642 1110 q 685 1169 675 1140 l 754 1169 q 690 1051 734 1089 q 591 1014 645 1014 z "},"Ò":{"ha":907,"x_min":59,"x_max":913,"o":"m 69 487 q 120 693 78 603 q 223 842 161 782 q 365 931 286 902 q 528 955 444 959 q 687 912 615 950 q 812 809 760 875 q 888 649 864 742 q 904 439 913 556 q 854 244 894 330 q 752 100 814 158 q 611 13 690 42 q 444 -11 532 -16 q 287 31 359 -6 q 164 133 216 69 q 85 288 112 198 q 69 487 59 378 m 220 479 q 226 326 212 396 q 271 204 239 255 q 349 124 302 153 q 455 91 396 94 q 565 112 514 88 q 655 183 616 136 q 720 297 694 230 q 754 449 746 364 q 748 608 761 536 q 703 732 734 680 q 625 813 672 784 q 519 846 578 843 q 409 826 460 849 q 318 755 358 803 q 252 637 278 707 q 220 479 227 567 m 415 1208 l 490 1208 q 496 1164 487 1191 q 521 1109 506 1137 q 555 1055 536 1081 q 587 1014 573 1030 l 493 1014 q 449 1046 476 1025 q 396 1092 421 1066 q 353 1148 370 1117 q 340 1208 335 1178 l 415 1208 z "},"Ó":{"ha":907,"x_min":59,"x_max":913,"o":"m 69 487 q 120 693 78 603 q 223 842 161 782 q 365 931 286 902 q 528 955 444 959 q 687 912 615 950 q 812 809 760 875 q 888 649 864 742 q 904 439 913 556 q 854 244 894 330 q 752 100 814 158 q 611 13 690 42 q 444 -11 532 -16 q 287 31 359 -6 q 164 133 216 69 q 85 288 112 198 q 69 487 59 378 m 220 479 q 226 326 212 396 q 271 204 239 255 q 349 124 302 153 q 455 91 396 94 q 565 112 514 88 q 655 183 616 136 q 720 297 694 230 q 754 449 746 364 q 748 608 761 536 q 703 732 734 680 q 625 813 672 784 q 519 846 578 843 q 409 826 460 849 q 318 755 358 803 q 252 637 278 707 q 220 479 227 567 m 785 1208 q 754 1148 781 1178 q 694 1092 728 1117 q 627 1046 661 1066 q 572 1014 592 1025 l 477 1014 q 524 1055 498 1030 q 573 1109 549 1081 q 615 1164 597 1137 q 635 1208 632 1191 l 710 1208 l 785 1208 l 785 1208 z "},"Ô":{"ha":907,"x_min":59,"x_max":913,"o":"m 69 487 q 120 693 78 603 q 223 842 161 782 q 365 931 286 902 q 528 955 444 959 q 687 912 615 950 q 812 809 760 875 q 888 649 864 742 q 904 439 913 556 q 854 244 894 330 q 752 100 814 158 q 611 13 690 42 q 444 -11 532 -16 q 287 31 359 -6 q 164 133 216 69 q 85 288 112 198 q 69 487 59 378 m 220 479 q 226 326 212 396 q 271 204 239 255 q 349 124 302 153 q 455 91 396 94 q 565 112 514 88 q 655 183 616 136 q 720 297 694 230 q 754 449 746 364 q 748 608 761 536 q 703 732 734 680 q 625 813 672 784 q 519 846 578 843 q 409 826 460 849 q 318 755 358 803 q 252 637 278 707 q 220 479 227 567 m 584 1224 q 619 1177 597 1208 q 667 1113 642 1146 q 716 1047 691 1079 q 758 998 741 1015 l 664 998 q 615 1041 645 1014 q 554 1100 586 1068 q 474 1041 512 1068 q 412 998 436 1014 l 318 998 q 363 1038 335 1012 q 424 1096 391 1065 q 490 1161 457 1127 q 554 1224 524 1196 l 584 1224 z "},"Õ":{"ha":907,"x_min":59,"x_max":913,"o":"m 69 487 q 120 693 78 603 q 223 842 161 782 q 365 931 286 902 q 528 955 444 959 q 687 912 615 950 q 812 809 760 875 q 888 649 864 742 q 904 439 913 556 q 854 244 894 330 q 752 100 814 158 q 611 13 690 42 q 444 -11 532 -16 q 287 31 359 -6 q 164 133 216 69 q 85 288 112 198 q 69 487 59 378 m 220 479 q 226 326 212 396 q 271 204 239 255 q 349 124 302 153 q 455 91 396 94 q 565 112 514 88 q 655 183 616 136 q 720 297 694 230 q 754 449 746 364 q 748 608 761 536 q 703 732 734 680 q 625 813 672 784 q 519 846 578 843 q 409 826 460 849 q 318 755 358 803 q 252 637 278 707 q 220 479 227 567 m 626 1014 q 572 1023 603 1014 q 522 1050 541 1031 q 487 1074 506 1065 q 449 1080 468 1082 q 413 1062 429 1078 q 386 1014 396 1047 l 319 1014 q 382 1131 337 1094 q 479 1169 428 1169 q 530 1159 501 1169 q 581 1132 559 1149 q 617 1109 597 1116 q 657 1106 637 1102 q 694 1125 677 1110 q 720 1169 710 1140 l 789 1169 q 725 1051 769 1089 q 626 1014 680 1014 z "},"Ö":{"ha":907,"x_min":59,"x_max":913,"o":"m 69 487 q 120 693 78 603 q 223 842 161 782 q 365 931 286 902 q 528 955 444 959 q 687 912 615 950 q 812 809 760 875 q 888 649 864 742 q 904 439 913 556 q 854 244 894 330 q 752 100 814 158 q 611 13 690 42 q 444 -11 532 -16 q 287 31 359 -6 q 164 133 216 69 q 85 288 112 198 q 69 487 59 378 m 220 479 q 226 326 212 396 q 271 204 239 255 q 349 124 302 153 q 455 91 396 94 q 565 112 514 88 q 655 183 616 136 q 720 297 694 230 q 754 449 746 364 q 748 608 761 536 q 703 732 734 680 q 625 813 672 784 q 519 846 578 843 q 409 826 460 849 q 318 755 358 803 q 252 637 278 707 q 220 479 227 567 m 353 1117 q 388 1185 361 1159 q 449 1210 415 1210 q 500 1185 481 1210 q 514 1117 520 1159 q 481 1052 508 1076 q 421 1028 453 1028 q 367 1052 388 1028 q 353 1117 346 1076 m 595 1117 q 631 1185 603 1159 q 691 1210 658 1210 q 743 1185 723 1210 q 757 1117 763 1159 q 723 1052 750 1076 q 664 1028 696 1028 q 610 1052 631 1028 q 595 1117 589 1076 z "},"×":{"ha":699,"x_min":126,"x_max":658,"o":"m 658 603 l 465 426 l 605 249 l 524 174 l 380 351 l 187 174 l 126 249 l 321 426 l 179 603 l 262 678 l 404 501 l 599 678 l 658 603 z "},"Ø":{"ha":907,"x_min":0,"x_max":982,"o":"m 0 0 l 880 955 l 982 955 l 101 0 l 0 0 m 70 501 q 126 706 83 618 q 233 851 169 793 q 375 934 297 908 q 538 953 453 959 q 697 905 624 945 q 820 797 769 865 q 893 636 870 730 q 904 426 916 543 q 850 233 892 318 q 745 92 808 148 q 602 9 682 35 q 436 -10 522 -18 q 279 37 351 -3 q 157 144 208 77 q 82 302 107 211 q 70 501 57 393 m 220 489 q 225 335 212 405 q 267 212 238 265 q 343 128 297 160 q 447 91 390 96 q 559 109 506 86 q 652 178 611 133 q 719 290 693 223 q 754 439 746 356 q 751 599 763 527 q 710 725 739 672 q 634 809 680 777 q 528 845 587 840 q 417 828 469 849 q 325 760 366 806 q 257 645 284 714 q 220 489 230 576 z "},"Ù":{"ha":837,"x_min":94,"x_max":899,"o":"m 236 313 q 259 152 222 212 q 388 93 295 93 q 502 114 439 93 q 607 169 565 136 l 701 795 q 703 856 706 830 q 696 901 701 883 q 686 929 691 920 q 678 940 680 939 l 899 940 q 889 929 897 939 q 870 902 881 920 q 848 857 859 884 q 833 795 838 830 l 736 145 q 733 84 731 110 q 739 39 734 57 q 750 11 744 21 q 757 0 755 2 l 589 0 q 591 17 591 0 q 594 73 592 34 q 537 39 570 54 q 469 14 504 24 q 398 -3 433 3 q 338 -10 364 -10 q 208 14 259 -10 q 132 81 158 38 q 100 181 105 123 q 105 308 94 239 l 177 795 q 181 856 184 830 q 173 901 179 883 q 162 929 168 920 q 155 940 156 939 l 377 940 q 366 929 375 939 q 346 902 358 920 q 325 857 335 884 q 310 795 314 830 l 236 313 m 425 1208 l 500 1208 q 506 1164 496 1191 q 531 1109 516 1137 q 564 1055 546 1081 q 597 1014 583 1030 l 503 1014 q 458 1046 485 1025 q 405 1092 431 1066 q 362 1148 380 1117 q 350 1208 345 1178 l 425 1208 z "},"Ú":{"ha":837,"x_min":94,"x_max":899,"o":"m 236 313 q 259 152 222 212 q 388 93 295 93 q 502 114 439 93 q 607 169 565 136 l 701 795 q 703 856 706 830 q 696 901 701 883 q 686 929 691 920 q 678 940 680 939 l 899 940 q 889 929 897 939 q 870 902 881 920 q 848 857 859 884 q 833 795 838 830 l 736 145 q 733 84 731 110 q 739 39 734 57 q 750 11 744 21 q 757 0 755 2 l 589 0 q 591 17 591 0 q 594 73 592 34 q 537 39 570 54 q 469 14 504 24 q 398 -3 433 3 q 338 -10 364 -10 q 208 14 259 -10 q 132 81 158 38 q 100 181 105 123 q 105 308 94 239 l 177 795 q 181 856 184 830 q 173 901 179 883 q 162 929 168 920 q 155 940 156 939 l 377 940 q 366 929 375 939 q 346 902 358 920 q 325 857 335 884 q 310 795 314 830 l 236 313 m 750 1208 q 719 1148 746 1178 q 659 1092 693 1117 q 591 1046 626 1066 q 536 1014 557 1025 l 442 1014 q 489 1055 463 1030 q 538 1109 514 1081 q 580 1164 562 1137 q 600 1208 597 1191 l 675 1208 l 750 1208 l 750 1208 z "},"Û":{"ha":837,"x_min":94,"x_max":899,"o":"m 236 313 q 259 152 222 212 q 388 93 295 93 q 502 114 439 93 q 607 169 565 136 l 701 795 q 703 856 706 830 q 696 901 701 883 q 686 929 691 920 q 678 940 680 939 l 899 940 q 889 929 897 939 q 870 902 881 920 q 848 857 859 884 q 833 795 838 830 l 736 145 q 733 84 731 110 q 739 39 734 57 q 750 11 744 21 q 757 0 755 2 l 589 0 q 591 17 591 0 q 594 73 592 34 q 537 39 570 54 q 469 14 504 24 q 398 -3 433 3 q 338 -10 364 -10 q 208 14 259 -10 q 132 81 158 38 q 100 181 105 123 q 105 308 94 239 l 177 795 q 181 856 184 830 q 173 901 179 883 q 162 929 168 920 q 155 940 156 939 l 377 940 q 366 929 375 939 q 346 902 358 920 q 325 857 335 884 q 310 795 314 830 l 236 313 m 549 1240 q 584 1193 562 1224 q 631 1129 607 1162 q 681 1063 656 1095 q 723 1014 706 1031 l 629 1014 q 580 1057 610 1030 q 519 1116 551 1084 q 439 1057 477 1084 q 377 1014 401 1030 l 283 1014 q 328 1054 300 1028 q 389 1112 356 1081 q 455 1177 421 1143 q 519 1240 489 1212 l 549 1240 z "},"Ü":{"ha":837,"x_min":94,"x_max":899,"o":"m 236 313 q 259 152 222 212 q 388 93 295 93 q 502 114 439 93 q 607 169 565 136 l 701 795 q 703 856 706 830 q 696 901 701 883 q 686 929 691 920 q 678 940 680 939 l 899 940 q 889 929 897 939 q 870 902 881 920 q 848 857 859 884 q 833 795 838 830 l 736 145 q 733 84 731 110 q 739 39 734 57 q 750 11 744 21 q 757 0 755 2 l 589 0 q 591 17 591 0 q 594 73 592 34 q 537 39 570 54 q 469 14 504 24 q 398 -3 433 3 q 338 -10 364 -10 q 208 14 259 -10 q 132 81 158 38 q 100 181 105 123 q 105 308 94 239 l 177 795 q 181 856 184 830 q 173 901 179 883 q 162 929 168 920 q 155 940 156 939 l 377 940 q 366 929 375 939 q 346 902 358 920 q 325 857 335 884 q 310 795 314 830 l 236 313 m 318 1117 q 353 1185 326 1159 q 413 1210 380 1210 q 465 1185 445 1210 q 479 1117 485 1159 q 445 1052 473 1076 q 386 1028 418 1028 q 332 1052 353 1028 q 318 1117 311 1076 m 560 1117 q 595 1185 568 1159 q 656 1210 623 1210 q 708 1185 688 1210 q 722 1117 728 1159 q 688 1052 715 1076 q 629 1028 661 1028 q 575 1052 595 1028 q 560 1117 554 1076 z "},"Ý":{"ha":806,"x_min":112,"x_max":905,"o":"m 493 370 l 460 145 q 456 84 453 110 q 463 39 458 57 q 473 11 468 21 q 481 0 479 2 l 259 0 q 269 10 260 0 q 289 37 278 19 q 311 81 300 54 q 327 145 322 109 l 361 370 l 184 825 q 139 904 163 873 q 112 940 115 936 l 367 940 q 360 930 366 939 q 350 906 354 921 q 346 871 346 891 q 353 825 345 851 l 482 508 l 686 825 q 709 871 702 851 q 715 906 715 891 q 712 930 715 921 q 709 940 709 939 l 905 940 q 865 906 899 936 q 797 825 832 876 l 493 370 m 730 1193 q 698 1132 725 1162 q 639 1076 672 1102 q 571 1030 605 1050 q 516 998 536 1009 l 421 998 q 468 1039 442 1014 q 517 1093 493 1065 q 559 1148 541 1121 q 580 1193 576 1175 l 655 1193 l 730 1193 l 730 1193 z "},"Þ":{"ha":663,"x_min":13,"x_max":675,"o":"m 393 940 q 339 878 361 918 q 310 798 318 838 l 308 781 l 335 781 q 476 765 412 781 q 584 714 540 749 q 652 622 629 678 q 669 485 675 565 q 634 366 664 418 q 554 279 603 314 q 438 226 504 244 q 295 208 372 208 l 222 208 l 212 145 q 209 84 208 110 q 216 39 211 57 q 226 11 220 21 q 233 0 231 2 l 13 0 q 23 10 14 0 q 42 37 32 19 q 64 81 53 54 q 80 145 75 109 l 177 795 q 180 856 182 830 q 172 901 177 883 q 162 929 168 920 q 155 940 156 939 l 393 940 m 291 674 l 236 310 l 303 310 q 456 356 401 310 q 517 485 511 402 q 476 632 525 591 q 329 674 426 674 l 291 674 z "},"ß":{"ha":782,"x_min":-75,"x_max":760,"o":"m 621 156 q 608 204 624 180 q 567 254 592 228 q 511 307 541 279 q 457 369 481 335 q 419 442 433 402 q 413 532 405 482 q 448 621 421 586 q 504 683 474 656 q 558 735 533 710 q 587 793 583 760 q 571 860 592 835 q 495 886 549 886 q 390 841 429 886 q 338 722 350 797 l 314 564 l 316 564 l 222 -62 q 194 -148 214 -109 q 146 -218 174 -188 q 86 -264 118 -247 q 24 -281 54 -281 q -42 -263 -18 -281 q -75 -217 -65 -244 q -18 -204 -46 -217 q 32 -168 10 -192 q 70 -114 54 -145 q 93 -46 86 -83 l 126 193 l 182 564 l 85 564 l 99 653 l 196 653 l 206 725 q 239 828 214 781 q 303 909 265 875 q 388 963 340 943 q 490 982 436 982 q 605 963 559 982 q 678 913 651 943 q 712 846 704 883 q 715 774 720 809 q 682 688 707 722 q 627 631 656 655 q 575 585 599 607 q 546 533 551 564 q 559 484 543 508 q 600 435 575 460 q 655 383 626 410 q 709 322 685 356 q 746 248 733 289 q 752 156 760 208 q 722 77 744 109 q 667 26 699 45 q 594 -2 634 6 q 512 -10 554 -10 q 416 2 461 -10 q 348 27 370 14 l 359 164 q 428 110 382 134 q 525 86 474 86 q 587 101 560 86 q 621 156 613 115 z "},"à":{"ha":661,"x_min":53,"x_max":678,"o":"m 623 64 q 576 8 605 22 q 522 -6 546 -6 q 460 16 487 -6 q 429 75 433 38 q 366 15 404 38 q 281 -8 327 -8 q 184 14 228 -8 q 111 78 140 37 q 67 180 81 120 q 57 316 53 241 q 90 455 64 391 q 156 564 117 519 q 247 635 196 610 q 350 661 297 661 q 438 645 396 661 q 506 595 481 629 q 514 631 509 618 q 522 653 519 643 l 678 653 q 658 624 675 650 q 631 540 640 599 l 568 123 q 571 73 564 86 q 589 57 578 59 q 611 60 600 56 q 623 64 621 64 m 190 324 q 196 216 185 260 q 228 146 208 172 q 276 108 249 120 q 330 96 303 96 q 442 171 410 96 l 493 496 q 382 557 458 557 q 314 543 346 557 q 256 499 283 528 q 212 425 230 469 q 190 324 195 382 m 227 937 l 302 937 q 308 892 299 920 q 333 837 318 865 q 366 784 348 809 q 399 742 385 758 l 305 742 q 260 774 287 754 q 208 821 233 795 q 164 876 182 846 q 152 937 147 907 l 227 937 z "},"á":{"ha":656,"x_min":53,"x_max":678,"o":"m 623 64 q 576 8 605 22 q 522 -6 546 -6 q 460 16 487 -6 q 429 75 433 38 q 366 15 404 38 q 281 -8 327 -8 q 184 14 228 -8 q 111 78 140 37 q 67 180 81 120 q 57 316 53 241 q 90 455 64 391 q 156 564 117 519 q 247 635 196 610 q 350 661 297 661 q 438 645 396 661 q 506 595 481 629 q 514 631 509 618 q 522 653 519 643 l 678 653 q 658 624 675 650 q 631 540 640 599 l 568 123 q 571 73 564 86 q 589 57 578 59 q 611 60 600 56 q 623 64 621 64 m 190 324 q 196 216 185 260 q 228 146 208 172 q 276 108 249 120 q 330 96 303 96 q 442 171 410 96 l 493 496 q 382 557 458 557 q 314 543 346 557 q 256 499 283 528 q 212 425 230 469 q 190 324 195 382 m 551 937 q 520 876 546 907 q 460 821 493 846 q 392 774 426 795 q 337 742 358 754 l 243 742 q 289 784 263 758 q 338 837 314 809 q 380 892 362 865 q 401 937 398 920 l 476 937 l 551 937 l 551 937 z "},"â":{"ha":656,"x_min":53,"x_max":678,"o":"m 623 64 q 576 8 605 22 q 522 -6 546 -6 q 460 16 487 -6 q 429 75 433 38 q 366 15 404 38 q 281 -8 327 -8 q 184 14 228 -8 q 111 78 140 37 q 67 180 81 120 q 57 316 53 241 q 90 455 64 391 q 156 564 117 519 q 247 635 196 610 q 350 661 297 661 q 438 645 396 661 q 506 595 481 629 q 514 631 509 618 q 522 653 519 643 l 678 653 q 658 624 675 650 q 631 540 640 599 l 568 123 q 571 73 564 86 q 589 57 578 59 q 611 60 600 56 q 623 64 621 64 m 190 324 q 196 216 185 260 q 228 146 208 172 q 276 108 249 120 q 330 96 303 96 q 442 171 410 96 l 493 496 q 382 557 458 557 q 314 543 346 557 q 256 499 283 528 q 212 425 230 469 q 190 324 195 382 m 383 969 q 418 922 396 953 q 465 857 441 891 q 515 792 490 824 q 557 742 540 760 l 463 742 q 414 785 444 758 q 353 845 385 813 q 273 785 311 813 q 211 742 235 758 l 117 742 q 162 783 134 757 q 223 841 190 809 q 289 906 255 872 q 353 969 322 940 l 383 969 z "},"ã":{"ha":655,"x_min":53,"x_max":678,"o":"m 623 64 q 576 8 605 22 q 522 -6 546 -6 q 460 16 487 -6 q 429 75 433 38 q 366 15 404 38 q 281 -8 327 -8 q 184 14 228 -8 q 111 78 140 37 q 67 180 81 120 q 57 316 53 241 q 90 455 64 391 q 156 564 117 519 q 247 635 196 610 q 350 661 297 661 q 438 645 396 661 q 506 595 481 629 q 514 631 509 618 q 522 653 519 643 l 678 653 q 658 624 675 650 q 631 540 640 599 l 568 123 q 571 73 564 86 q 589 57 578 59 q 611 60 600 56 q 623 64 621 64 m 190 324 q 196 216 185 260 q 228 146 208 172 q 276 108 249 120 q 330 96 303 96 q 442 171 410 96 l 493 496 q 382 557 458 557 q 314 543 346 557 q 256 499 283 528 q 212 425 230 469 q 190 324 195 382 m 439 758 q 386 767 417 758 q 335 795 354 776 q 300 818 319 809 q 262 825 281 827 q 226 807 243 822 q 200 758 209 792 l 133 758 q 196 876 150 838 q 292 913 241 913 q 343 904 314 913 q 394 876 372 894 q 430 853 410 860 q 470 850 450 846 q 507 869 490 854 q 533 913 524 884 l 602 913 q 538 796 583 833 q 439 758 493 758 z "},"ä":{"ha":658,"x_min":53,"x_max":678,"o":"m 623 64 q 576 8 605 22 q 522 -6 546 -6 q 460 16 487 -6 q 429 75 433 38 q 366 15 404 38 q 281 -8 327 -8 q 184 14 228 -8 q 111 78 140 37 q 67 180 81 120 q 57 316 53 241 q 90 455 64 391 q 156 564 117 519 q 247 635 196 610 q 350 661 297 661 q 438 645 396 661 q 506 595 481 629 q 514 631 509 618 q 522 653 519 643 l 678 653 q 658 624 675 650 q 631 540 640 599 l 568 123 q 571 73 564 86 q 589 57 578 59 q 611 60 600 56 q 623 64 621 64 m 190 324 q 196 216 185 260 q 228 146 208 172 q 276 108 249 120 q 330 96 303 96 q 442 171 410 96 l 493 496 q 382 557 458 557 q 314 543 346 557 q 256 499 283 528 q 212 425 230 469 q 190 324 195 382 m 166 846 q 201 913 174 888 q 262 939 228 939 q 314 913 294 939 q 327 846 334 888 q 294 781 321 805 q 235 757 267 757 q 180 781 201 757 q 166 846 160 805 m 409 846 q 444 913 417 888 q 504 939 471 939 q 556 913 536 939 q 570 846 576 888 q 536 781 564 805 q 477 757 509 757 q 423 781 444 757 q 409 846 402 805 z "},"å":{"ha":653,"x_min":53,"x_max":678,"o":"m 623 64 q 576 8 605 22 q 522 -6 546 -6 q 460 16 487 -6 q 429 75 433 38 q 366 15 404 38 q 281 -8 327 -8 q 184 14 228 -8 q 111 78 140 37 q 67 180 81 120 q 57 316 53 241 q 90 455 64 391 q 156 564 117 519 q 247 635 196 610 q 350 661 297 661 q 438 645 396 661 q 506 595 481 629 q 514 631 509 618 q 522 653 519 643 l 678 653 q 658 624 675 650 q 631 540 640 599 l 568 123 q 571 73 564 86 q 589 57 578 59 q 611 60 600 56 q 623 64 621 64 m 190 324 q 196 216 185 260 q 228 146 208 172 q 276 108 249 120 q 330 96 303 96 q 442 171 410 96 l 493 496 q 382 557 458 557 q 314 543 346 557 q 256 499 283 528 q 212 425 230 469 q 190 324 195 382 m 252 843 q 299 928 260 892 q 385 963 338 963 q 460 928 431 963 q 481 843 489 892 q 465 797 477 819 q 434 758 452 774 q 394 733 417 742 q 348 723 372 723 q 274 758 302 723 q 252 843 246 793 m 307 843 q 318 799 303 817 q 358 781 334 781 q 402 799 382 781 q 426 843 423 817 q 414 887 429 868 q 375 905 399 905 q 331 887 351 905 q 307 843 311 868 z "},"æ":{"ha":1017,"x_min":53,"x_max":1036,"o":"m 817 661 q 923 645 880 661 q 991 603 966 629 q 1027 543 1017 576 q 1030 474 1036 509 q 1008 411 1025 442 q 959 356 991 380 q 878 318 928 332 q 757 303 829 303 l 603 303 q 609 219 597 259 q 645 148 621 179 q 703 98 669 117 q 776 80 738 80 q 880 101 825 80 q 963 156 936 123 l 948 38 q 872 6 926 21 q 749 -10 817 -10 q 603 23 667 -10 q 501 123 538 56 q 445 56 474 81 q 386 16 415 30 q 330 -3 358 2 q 281 -8 303 -8 q 184 14 228 -8 q 111 78 140 37 q 67 180 81 120 q 57 316 53 241 q 90 455 64 391 q 156 564 117 519 q 247 635 196 610 q 350 661 297 661 q 438 645 396 661 q 506 595 481 629 q 514 631 509 618 q 522 653 519 643 l 648 653 q 643 631 645 650 q 637 591 640 613 q 727 646 683 631 q 817 661 771 661 m 190 324 q 196 216 185 260 q 228 146 208 172 q 276 108 249 120 q 330 96 303 96 q 442 171 410 96 l 493 496 q 382 557 458 557 q 314 543 346 557 q 256 499 283 528 q 212 425 230 469 q 190 324 195 382 m 814 567 q 749 553 781 567 q 690 516 717 540 q 645 461 664 493 q 618 393 626 429 l 785 393 q 882 417 846 393 q 923 471 918 441 q 904 536 928 506 q 814 567 880 567 z "},"ç":{"ha":565,"x_min":51,"x_max":573,"o":"m 196 319 q 228 145 185 211 q 359 80 271 80 q 449 102 409 80 q 524 166 489 125 l 501 38 q 433 6 479 21 q 319 -10 388 -10 q 208 13 259 -10 q 121 77 156 35 q 68 180 85 118 q 59 319 51 241 q 97 463 65 399 q 175 571 128 527 q 280 639 222 615 q 399 663 338 663 q 500 651 450 663 q 573 627 549 640 l 557 503 q 502 549 540 528 q 412 570 465 570 q 266 502 324 570 q 196 319 208 434 m 399 11 q 382 -21 390 -5 q 366 -47 374 -34 q 354 -69 358 -61 q 376 -69 354 -67 q 421 -84 398 -72 q 462 -121 445 -96 q 471 -195 479 -147 q 418 -311 460 -270 q 330 -375 377 -353 q 212 -407 278 -401 l 188 -362 q 268 -340 231 -358 q 327 -298 300 -326 q 362 -223 354 -270 q 350 -167 369 -184 q 303 -147 330 -150 q 231 -150 273 -142 q 281 -70 259 -105 q 299 -42 291 -56 q 314 -14 307 -27 q 330 11 322 0 l 399 11 z "},"è":{"ha":613,"x_min":53,"x_max":627,"o":"m 410 661 q 515 645 473 661 q 583 603 557 629 q 619 543 610 576 q 623 474 627 509 q 601 411 618 442 q 552 356 584 380 q 469 318 519 332 q 350 303 420 303 l 196 303 q 201 219 190 259 q 237 148 212 179 q 296 98 262 117 q 369 80 330 80 q 473 101 418 80 q 556 156 528 123 l 540 38 q 464 6 517 21 q 342 -10 410 -10 q 224 10 279 -10 q 131 71 169 30 q 73 174 93 112 q 59 319 53 236 q 97 456 65 393 q 178 564 129 519 q 287 635 227 610 q 410 661 346 661 m 407 567 q 342 553 374 567 q 283 516 310 540 q 237 461 257 493 q 209 393 217 429 l 378 393 q 473 417 437 393 q 514 471 509 441 q 496 536 520 506 q 407 567 473 567 m 337 937 l 412 937 q 418 892 409 920 q 443 837 428 865 q 477 784 458 809 q 509 742 495 758 l 415 742 q 370 774 398 754 q 318 821 343 795 q 275 876 292 846 q 262 937 257 907 l 337 937 z "},"é":{"ha":618,"x_min":53,"x_max":627,"o":"m 410 661 q 515 645 473 661 q 583 603 557 629 q 619 543 610 576 q 623 474 627 509 q 601 411 618 442 q 552 356 584 380 q 469 318 519 332 q 350 303 420 303 l 196 303 q 201 219 190 259 q 237 148 212 179 q 296 98 262 117 q 369 80 330 80 q 473 101 418 80 q 556 156 528 123 l 540 38 q 464 6 517 21 q 342 -10 410 -10 q 224 10 279 -10 q 131 71 169 30 q 73 174 93 112 q 59 319 53 236 q 97 456 65 393 q 178 564 129 519 q 287 635 227 610 q 410 661 346 661 m 407 567 q 342 553 374 567 q 283 516 310 540 q 237 461 257 493 q 209 393 217 429 l 378 393 q 473 417 437 393 q 514 471 509 441 q 496 536 520 506 q 407 567 473 567 m 541 937 q 510 876 536 907 q 450 821 484 846 q 382 774 417 795 q 327 742 348 754 l 233 742 q 279 784 254 758 q 329 837 305 809 q 370 892 353 865 q 391 937 388 920 l 466 937 l 541 937 l 541 937 z "},"ê":{"ha":618,"x_min":53,"x_max":627,"o":"m 410 661 q 515 645 473 661 q 583 603 557 629 q 619 543 610 576 q 623 474 627 509 q 601 411 618 442 q 552 356 584 380 q 469 318 519 332 q 350 303 420 303 l 196 303 q 201 219 190 259 q 237 148 212 179 q 296 98 262 117 q 369 80 330 80 q 473 101 418 80 q 556 156 528 123 l 540 38 q 464 6 517 21 q 342 -10 410 -10 q 224 10 279 -10 q 131 71 169 30 q 73 174 93 112 q 59 319 53 236 q 97 456 65 393 q 178 564 129 519 q 287 635 227 610 q 410 661 346 661 m 407 567 q 342 553 374 567 q 283 516 310 540 q 237 461 257 493 q 209 393 217 429 l 378 393 q 473 417 437 393 q 514 471 509 441 q 496 536 520 506 q 407 567 473 567 m 417 969 q 452 922 429 953 q 499 857 474 891 q 548 792 524 824 q 591 742 573 760 l 496 742 q 448 785 477 758 q 386 845 418 813 q 307 785 345 813 q 244 742 268 758 l 150 742 q 196 783 168 757 q 256 841 223 809 q 322 906 289 872 q 386 969 356 940 l 417 969 z "},"ë":{"ha":616,"x_min":53,"x_max":627,"o":"m 410 661 q 515 645 473 661 q 583 603 557 629 q 619 543 610 576 q 623 474 627 509 q 601 411 618 442 q 552 356 584 380 q 469 318 519 332 q 350 303 420 303 l 196 303 q 201 219 190 259 q 237 148 212 179 q 296 98 262 117 q 369 80 330 80 q 473 101 418 80 q 556 156 528 123 l 540 38 q 464 6 517 21 q 342 -10 410 -10 q 224 10 279 -10 q 131 71 169 30 q 73 174 93 112 q 59 319 53 236 q 97 456 65 393 q 178 564 129 519 q 287 635 227 610 q 410 661 346 661 m 407 567 q 342 553 374 567 q 283 516 310 540 q 237 461 257 493 q 209 393 217 429 l 378 393 q 473 417 437 393 q 514 471 509 441 q 496 536 520 506 q 407 567 473 567 m 184 846 q 219 913 192 888 q 279 939 246 939 q 331 913 311 939 q 345 846 351 888 q 311 781 338 805 q 252 757 284 757 q 198 781 219 757 q 184 846 177 805 m 426 846 q 461 913 434 888 q 522 939 489 939 q 574 913 554 939 q 587 846 594 888 q 554 781 581 805 q 495 757 527 757 q 441 781 461 757 q 426 846 420 805 z "},"ì":{"ha":313,"x_min":29,"x_max":329,"o":"m 265 22 q 168 -6 206 -5 q 111 7 131 -8 q 85 49 91 22 q 85 109 80 77 l 148 532 q 148 616 158 591 q 136 645 139 642 l 329 661 q 309 633 326 658 q 284 548 292 608 l 217 109 q 216 62 212 80 q 227 37 219 45 q 245 26 235 29 q 265 22 255 22 m 109 937 l 184 937 q 190 892 180 920 q 215 837 200 865 q 248 784 230 809 q 281 742 267 758 l 187 742 q 142 774 169 754 q 89 821 115 795 q 46 876 64 846 q 34 937 29 907 l 109 937 z "},"í":{"ha":313,"x_min":80,"x_max":434,"o":"m 265 22 q 168 -6 206 -5 q 111 7 131 -8 q 85 49 91 22 q 85 109 80 77 l 148 532 q 148 616 158 591 q 136 645 139 642 l 329 661 q 309 633 326 658 q 284 548 292 608 l 217 109 q 216 62 212 80 q 227 37 219 45 q 245 26 235 29 q 265 22 255 22 m 434 937 q 403 876 429 907 q 343 821 377 846 q 275 774 310 795 q 220 742 241 754 l 126 742 q 172 784 147 758 q 222 837 198 809 q 263 892 246 865 q 284 937 281 920 l 359 937 l 434 937 l 434 937 z "},"î":{"ha":313,"x_min":-18,"x_max":423,"o":"m 265 22 q 168 -6 206 -5 q 111 7 131 -8 q 85 49 91 22 q 85 109 80 77 l 148 532 q 148 616 158 591 q 136 645 139 642 l 329 661 q 309 633 326 658 q 284 548 292 608 l 217 109 q 216 62 212 80 q 227 37 219 45 q 245 26 235 29 q 265 22 255 22 m 249 969 q 284 922 262 953 q 331 857 307 891 q 381 792 356 824 q 423 742 405 760 l 329 742 q 280 785 310 758 q 219 845 251 813 q 139 785 177 813 q 77 742 101 758 l -18 742 q 28 783 0 757 q 89 841 56 809 q 155 906 121 872 q 219 969 188 940 l 249 969 z "},"ï":{"ha":313,"x_min":11,"x_max":428,"o":"m 265 22 q 168 -6 206 -5 q 111 7 131 -8 q 85 49 91 22 q 85 109 80 77 l 148 532 q 148 616 158 591 q 136 645 139 642 l 329 661 q 309 633 326 658 q 284 548 292 608 l 217 109 q 216 62 212 80 q 227 37 219 45 q 245 26 235 29 q 265 22 255 22 m 18 846 q 53 913 26 888 q 113 939 80 939 q 165 913 145 939 q 179 846 185 888 q 145 781 172 805 q 86 757 118 757 q 32 781 53 757 q 18 846 11 805 m 260 846 q 295 913 268 888 q 356 939 322 939 q 408 913 388 939 q 421 846 428 888 q 388 781 415 805 q 329 757 361 757 q 275 781 295 757 q 260 846 254 805 z "},"ð":{"ha":650,"x_min":45,"x_max":639,"o":"m 391 653 q 437 643 407 650 q 485 621 466 635 q 429 758 466 699 q 353 856 391 816 q 286 916 314 896 q 255 937 257 936 l 340 974 q 364 955 338 974 q 426 900 390 937 q 504 810 463 864 q 576 686 544 757 q 623 528 608 616 q 623 335 639 439 q 580 183 610 249 q 506 72 549 117 q 409 6 463 27 q 297 -8 356 -14 q 179 28 230 -2 q 97 105 128 57 q 55 217 65 153 q 56 356 45 281 q 100 485 67 428 q 179 582 133 543 q 280 640 225 621 q 391 653 335 659 m 187 350 q 185 239 177 286 q 212 160 193 192 q 259 113 231 129 q 313 93 286 96 q 364 99 337 89 q 415 135 391 109 q 459 207 439 161 q 489 324 479 252 q 490 406 495 366 q 471 479 485 447 q 433 532 457 511 q 377 559 409 554 q 322 551 351 560 q 265 516 292 541 q 217 449 238 490 q 187 350 196 409 m 228 777 l 559 985 l 592 920 l 262 714 l 228 777 z "},"ñ":{"ha":688,"x_min":38,"x_max":656,"o":"m 512 433 q 503 525 522 492 q 441 556 484 559 q 271 476 356 546 l 219 113 q 218 29 209 54 q 228 0 227 3 l 38 0 q 59 27 42 2 q 86 113 77 53 l 150 540 q 150 624 160 599 q 137 653 140 650 l 292 653 q 291 637 292 648 q 290 611 291 626 q 288 583 289 597 q 286 557 287 568 q 389 627 332 597 q 493 661 445 656 q 587 651 552 666 q 637 606 621 635 q 655 537 653 576 q 650 457 656 498 l 595 109 q 595 62 591 80 q 607 37 599 45 q 625 26 615 29 q 643 22 635 22 q 547 -6 584 -5 q 489 7 509 -8 q 465 49 469 22 q 465 109 460 77 l 512 433 l 512 433 m 477 758 q 424 767 455 758 q 374 795 393 776 q 338 818 358 809 q 300 825 319 827 q 264 807 281 822 q 238 758 247 792 l 171 758 q 234 876 188 838 q 330 913 279 913 q 382 904 353 913 q 433 876 410 894 q 469 853 449 860 q 508 850 489 846 q 545 869 528 854 q 572 913 562 884 l 640 913 q 576 796 621 833 q 477 758 532 758 z "},"ò":{"ha":674,"x_min":56,"x_max":661,"o":"m 61 330 q 96 475 67 412 q 168 580 125 538 q 267 643 212 623 q 383 663 322 664 q 495 635 442 659 q 585 564 548 610 q 642 453 623 519 q 656 307 661 388 q 623 170 651 230 q 552 69 595 110 q 452 8 508 29 q 335 -10 396 -13 q 222 17 275 -8 q 132 86 169 42 q 75 192 94 131 q 61 330 56 254 m 196 324 q 227 148 188 216 q 340 78 265 81 q 463 139 415 75 q 519 313 511 203 q 489 497 528 428 q 377 570 450 567 q 253 507 302 573 q 196 324 204 441 m 350 937 l 425 937 q 431 892 421 920 q 456 837 441 865 q 489 784 471 809 q 522 742 508 758 l 428 742 q 383 774 410 754 q 330 821 356 795 q 287 876 305 846 q 275 937 270 907 l 350 937 z "},"ó":{"ha":674,"x_min":56,"x_max":661,"o":"m 61 330 q 96 475 67 412 q 168 580 125 538 q 267 643 212 623 q 383 663 322 664 q 495 635 442 659 q 585 564 548 610 q 642 453 623 519 q 656 307 661 388 q 623 170 651 230 q 552 69 595 110 q 452 8 508 29 q 335 -10 396 -13 q 222 17 275 -8 q 132 86 169 42 q 75 192 94 131 q 61 330 56 254 m 196 324 q 227 148 188 216 q 340 78 265 81 q 463 139 415 75 q 519 313 511 203 q 489 497 528 428 q 377 570 450 567 q 253 507 302 573 q 196 324 204 441 m 552 937 q 521 876 548 907 q 461 821 495 846 q 394 774 428 795 q 338 742 359 754 l 244 742 q 291 784 265 758 q 340 837 316 809 q 382 892 364 865 q 402 937 399 920 l 477 937 l 552 937 l 552 937 z "},"ô":{"ha":674,"x_min":56,"x_max":661,"o":"m 61 330 q 96 475 67 412 q 168 580 125 538 q 267 643 212 623 q 383 663 322 664 q 495 635 442 659 q 585 564 548 610 q 642 453 623 519 q 656 307 661 388 q 623 170 651 230 q 552 69 595 110 q 452 8 508 29 q 335 -10 396 -13 q 222 17 275 -8 q 132 86 169 42 q 75 192 94 131 q 61 330 56 254 m 196 324 q 227 148 188 216 q 340 78 265 81 q 463 139 415 75 q 519 313 511 203 q 489 497 528 428 q 377 570 450 567 q 253 507 302 573 q 196 324 204 441 m 429 969 q 465 922 442 953 q 512 857 487 891 q 561 792 536 824 q 603 742 586 760 l 509 742 q 461 785 490 758 q 399 845 431 813 q 319 785 358 813 q 257 742 281 758 l 163 742 q 208 783 180 757 q 269 841 236 809 q 335 906 302 872 q 399 969 369 940 l 429 969 z "},"õ":{"ha":674,"x_min":56,"x_max":661,"o":"m 61 330 q 96 475 67 412 q 168 580 125 538 q 267 643 212 623 q 383 663 322 664 q 495 635 442 659 q 585 564 548 610 q 642 453 623 519 q 656 307 661 388 q 623 170 651 230 q 552 69 595 110 q 452 8 508 29 q 335 -10 396 -13 q 222 17 275 -8 q 132 86 169 42 q 75 192 94 131 q 61 330 56 254 m 196 324 q 227 148 188 216 q 340 78 265 81 q 463 139 415 75 q 519 313 511 203 q 489 497 528 428 q 377 570 450 567 q 253 507 302 573 q 196 324 204 441 m 471 758 q 417 767 449 758 q 367 795 386 776 q 332 818 351 809 q 294 825 313 827 q 258 807 275 822 q 231 758 241 792 l 164 758 q 227 876 182 838 q 324 913 273 913 q 375 904 346 913 q 426 876 404 894 q 462 853 442 860 q 502 850 482 846 q 539 869 522 854 q 565 913 556 884 l 634 913 q 570 796 615 833 q 471 758 525 758 z "},"ö":{"ha":674,"x_min":56,"x_max":661,"o":"m 61 330 q 96 475 67 412 q 168 580 125 538 q 267 643 212 623 q 383 663 322 664 q 495 635 442 659 q 585 564 548 610 q 642 453 623 519 q 656 307 661 388 q 623 170 651 230 q 552 69 595 110 q 452 8 508 29 q 335 -10 396 -13 q 222 17 275 -8 q 132 86 169 42 q 75 192 94 131 q 61 330 56 254 m 196 324 q 227 148 188 216 q 340 78 265 81 q 463 139 415 75 q 519 313 511 203 q 489 497 528 428 q 377 570 450 567 q 253 507 302 573 q 196 324 204 441 m 198 846 q 233 913 206 888 q 294 939 260 939 q 346 913 326 939 q 359 846 366 888 q 326 781 353 805 q 267 757 299 757 q 212 781 233 757 q 198 846 192 805 m 441 846 q 476 913 449 888 q 536 939 503 939 q 588 913 568 939 q 602 846 608 888 q 568 781 595 805 q 509 757 541 757 q 455 781 476 757 q 441 846 434 805 z "},"÷":{"ha":699,"x_min":97,"x_max":688,"o":"m 688 484 l 674 378 l 97 378 l 112 484 l 688 484 m 452 192 q 414 126 445 150 q 343 102 383 102 q 279 126 302 102 q 260 192 255 150 q 299 258 268 233 q 370 283 330 283 q 435 258 410 283 q 452 192 460 233 m 525 670 q 487 605 517 629 q 415 581 457 581 q 350 605 375 581 q 334 670 326 629 q 371 737 340 712 q 442 761 402 761 q 507 737 484 761 q 525 670 530 712 z "},"ø":{"ha":674,"x_min":11,"x_max":710,"o":"m 11 0 l 608 664 l 710 664 l 112 0 l 11 0 m 62 353 q 101 495 70 434 q 176 595 131 556 q 278 651 222 635 q 394 661 334 667 q 505 625 453 655 q 593 547 557 595 q 646 432 629 498 q 655 284 663 366 q 616 150 647 208 q 541 55 586 93 q 440 1 496 18 q 324 -10 383 -16 q 212 26 263 -3 q 125 102 161 54 q 72 213 89 150 q 62 353 54 276 m 198 337 q 222 158 185 228 q 332 80 259 88 q 456 131 405 70 q 517 300 506 192 q 494 488 530 415 q 383 570 458 560 q 261 515 311 578 q 198 337 211 452 z "},"ù":{"ha":694,"x_min":94,"x_max":707,"o":"m 233 225 q 243 130 225 166 q 303 94 262 94 q 389 110 348 94 q 471 158 429 126 l 528 540 q 528 624 536 599 q 516 653 519 650 l 707 653 q 686 626 704 651 q 659 540 669 600 l 595 113 q 597 29 587 54 q 610 0 607 3 l 453 0 q 454 32 453 10 q 458 77 455 54 q 356 16 412 40 q 254 -8 300 -8 q 161 11 195 -8 q 112 61 128 30 q 95 133 96 93 q 101 214 94 172 l 148 540 q 149 624 158 599 q 137 653 140 650 l 327 653 q 307 626 324 651 q 281 540 289 600 l 233 225 m 284 937 l 359 937 q 366 892 356 920 q 390 837 375 865 q 424 784 405 809 q 457 742 442 758 l 362 742 q 318 774 345 754 q 265 821 291 795 q 222 876 239 846 q 209 937 204 907 l 284 937 z "},"ú":{"ha":694,"x_min":94,"x_max":707,"o":"m 233 225 q 243 130 225 166 q 303 94 262 94 q 389 110 348 94 q 471 158 429 126 l 528 540 q 528 624 536 599 q 516 653 519 650 l 707 653 q 686 626 704 651 q 659 540 669 600 l 595 113 q 597 29 587 54 q 610 0 607 3 l 453 0 q 454 32 453 10 q 458 77 455 54 q 356 16 412 40 q 254 -8 300 -8 q 161 11 195 -8 q 112 61 128 30 q 95 133 96 93 q 101 214 94 172 l 148 540 q 149 624 158 599 q 137 653 140 650 l 327 653 q 307 626 324 651 q 281 540 289 600 l 233 225 m 655 937 q 623 876 650 907 q 564 821 597 846 q 496 774 530 795 q 441 742 461 754 l 346 742 q 393 784 367 758 q 442 837 418 809 q 484 892 466 865 q 504 937 501 920 l 580 937 l 655 937 l 655 937 z "},"û":{"ha":694,"x_min":94,"x_max":707,"o":"m 233 225 q 243 130 225 166 q 303 94 262 94 q 389 110 348 94 q 471 158 429 126 l 528 540 q 528 624 536 599 q 516 653 519 650 l 707 653 q 686 626 704 651 q 659 540 669 600 l 595 113 q 597 29 587 54 q 610 0 607 3 l 453 0 q 454 32 453 10 q 458 77 455 54 q 356 16 412 40 q 254 -8 300 -8 q 161 11 195 -8 q 112 61 128 30 q 95 133 96 93 q 101 214 94 172 l 148 540 q 149 624 158 599 q 137 653 140 650 l 327 653 q 307 626 324 651 q 281 540 289 600 l 233 225 m 441 969 q 476 922 453 953 q 523 857 498 891 q 572 792 548 824 q 615 742 597 760 l 520 742 q 472 785 501 758 q 410 845 442 813 q 330 785 369 813 q 268 742 292 758 l 174 742 q 220 783 192 757 q 280 841 247 809 q 346 906 313 872 q 410 969 380 940 l 441 969 z "},"ü":{"ha":694,"x_min":94,"x_max":707,"o":"m 233 225 q 243 130 225 166 q 303 94 262 94 q 389 110 348 94 q 471 158 429 126 l 528 540 q 528 624 536 599 q 516 653 519 650 l 707 653 q 686 626 704 651 q 659 540 669 600 l 595 113 q 597 29 587 54 q 610 0 607 3 l 453 0 q 454 32 453 10 q 458 77 455 54 q 356 16 412 40 q 254 -8 300 -8 q 161 11 195 -8 q 112 61 128 30 q 95 133 96 93 q 101 214 94 172 l 148 540 q 149 624 158 599 q 137 653 140 650 l 327 653 q 307 626 324 651 q 281 540 289 600 l 233 225 m 208 846 q 243 913 216 888 q 303 939 270 939 q 355 913 335 939 q 369 846 375 888 q 335 781 362 805 q 276 757 308 757 q 222 781 243 757 q 208 846 201 805 m 450 846 q 485 913 458 888 q 546 939 512 939 q 598 913 578 939 q 611 846 618 888 q 578 781 605 805 q 519 757 551 757 q 465 781 485 757 q 450 846 444 805 z "},"ý":{"ha":639,"x_min":-2,"x_max":714,"o":"m 10 -169 q 69 -176 37 -182 q 133 -148 101 -171 q 198 -84 166 -126 q 259 21 230 -42 q 247 66 255 35 q 224 156 238 97 q 191 309 211 216 q 144 540 171 402 q 114 624 131 599 q 94 653 97 650 l 292 653 q 279 624 289 650 q 284 540 270 599 l 358 196 l 530 540 q 550 591 544 570 q 556 625 556 611 q 556 645 557 639 q 554 653 554 651 l 714 653 q 682 624 707 650 q 629 540 658 599 q 528 338 572 423 q 453 192 485 254 q 398 86 421 129 q 358 10 375 43 q 272 -131 311 -77 q 198 -216 233 -185 q 133 -257 163 -246 q 75 -268 102 -268 q 16 -238 34 -268 q 10 -169 -2 -208 m 611 937 q 580 876 607 907 q 520 821 554 846 q 453 774 487 795 q 398 742 418 754 l 303 742 q 350 784 324 758 q 399 837 375 809 q 441 892 423 865 q 461 937 458 920 l 536 937 l 611 937 l 611 937 z "},"þ":{"ha":685,"x_min":-3,"x_max":674,"o":"m 287 581 q 366 642 329 623 q 450 661 404 661 q 615 582 556 661 q 661 353 674 503 q 628 207 656 273 q 559 94 600 140 q 465 22 517 48 q 354 -3 412 -3 q 279 3 324 -3 q 203 27 233 10 l 174 -158 q 172 -208 171 -187 q 176 -242 172 -228 q 182 -263 179 -255 q 187 -271 185 -270 l -3 -271 q 17 -244 0 -270 q 43 -158 34 -219 l 196 859 q 196 943 204 918 q 184 972 187 969 l 375 972 q 354 944 372 969 q 327 859 337 920 l 287 581 m 530 345 q 526 450 535 409 q 498 516 517 492 q 452 548 479 540 q 391 557 425 557 q 324 536 353 557 q 271 485 295 514 l 219 125 q 270 105 239 112 q 327 97 300 97 q 400 114 366 97 q 462 162 434 131 q 508 239 490 193 q 530 345 525 286 z "},"ÿ":{"ha":639,"x_min":-2,"x_max":714,"o":"m 10 -169 q 69 -176 37 -182 q 133 -148 101 -171 q 198 -84 166 -126 q 259 21 230 -42 q 247 66 255 35 q 224 156 238 97 q 191 309 211 216 q 144 540 171 402 q 114 624 131 599 q 94 653 97 650 l 292 653 q 279 624 289 650 q 284 540 270 599 l 358 196 l 530 540 q 550 591 544 570 q 556 625 556 611 q 556 645 557 639 q 554 653 554 651 l 714 653 q 682 624 707 650 q 629 540 658 599 q 528 338 572 423 q 453 192 485 254 q 398 86 421 129 q 358 10 375 43 q 272 -131 311 -77 q 198 -216 233 -185 q 133 -257 163 -246 q 75 -268 102 -268 q 16 -238 34 -268 q 10 -169 -2 -208 m 179 846 q 214 913 187 888 q 275 939 241 939 q 326 913 307 939 q 340 846 346 888 q 307 781 334 805 q 247 757 279 757 q 193 781 214 757 q 179 846 172 805 m 421 846 q 457 913 429 888 q 517 939 484 939 q 569 913 549 939 q 583 846 589 888 q 549 781 576 805 q 490 757 522 757 q 436 781 457 757 q 421 846 415 805 z "},"ı":{"ha":313,"x_min":80,"x_max":329,"o":"m 265 22 q 168 -6 206 -5 q 111 7 131 -8 q 85 49 91 22 q 85 109 80 77 l 148 532 q 148 616 158 591 q 136 645 139 642 l 329 661 q 309 633 326 658 q 284 548 292 608 l 217 109 q 216 62 212 80 q 227 37 219 45 q 245 26 235 29 q 265 22 255 22 z "},"Ł":{"ha":580,"x_min":13,"x_max":557,"o":"m 520 0 l 13 0 q 23 10 14 0 q 42 37 32 19 q 64 81 53 54 q 80 145 75 109 l 177 795 q 180 856 182 830 q 172 901 177 883 q 162 929 168 920 q 155 940 156 939 l 377 940 q 366 929 375 939 q 346 902 358 920 q 325 857 335 884 q 310 795 314 830 l 212 145 l 206 107 l 399 107 q 499 128 466 107 q 557 182 532 148 l 520 0 m 412 624 l 398 519 l 16 342 l 34 447 l 412 624 z "},"ł":{"ha":388,"x_min":30,"x_max":426,"o":"m 305 567 l 426 624 l 410 519 l 289 461 l 236 113 q 236 29 228 54 q 247 0 244 3 l 56 0 q 77 27 59 2 q 105 113 96 53 l 147 396 l 30 342 l 46 447 l 163 501 l 217 859 q 216 943 225 918 q 203 972 206 969 l 394 972 q 374 944 391 969 q 350 859 358 920 l 305 567 z "},"Œ":{"ha":1108,"x_min":72,"x_max":1159,"o":"m 81 465 q 136 670 91 581 q 251 818 180 758 q 411 909 321 878 q 602 940 501 940 l 1159 940 l 1140 773 q 1100 817 1130 801 q 1003 833 1070 833 l 809 833 l 765 535 l 959 535 q 1008 542 987 535 q 1045 557 1030 549 q 1068 573 1060 565 q 1078 583 1076 581 l 1049 388 q 1042 397 1049 390 q 1023 412 1036 404 q 991 427 1011 420 q 945 434 972 434 l 749 434 l 701 107 l 894 107 q 993 124 961 107 q 1049 174 1025 140 l 1015 0 l 528 0 q 342 32 428 0 q 196 124 257 64 q 103 270 134 184 q 81 465 72 356 m 570 107 q 583 200 575 142 q 605 344 592 257 q 636 552 618 431 q 678 838 655 674 l 592 838 q 461 813 524 838 q 347 742 398 789 q 265 626 297 694 q 227 469 233 557 q 241 319 219 386 q 306 205 263 252 q 407 133 348 158 q 535 107 466 107 l 570 107 z "},"œ":{"ha":1062,"x_min":56,"x_max":1090,"o":"m 872 661 q 977 645 934 661 q 1046 603 1020 629 q 1081 543 1071 576 q 1084 474 1090 509 q 1063 411 1079 442 q 1015 356 1047 380 q 932 318 982 332 q 811 303 883 303 l 658 303 q 663 219 651 259 q 700 148 675 179 q 759 98 725 117 q 832 80 793 80 q 883 85 856 80 q 936 101 910 91 q 983 125 961 112 q 1017 156 1004 139 l 1003 38 q 927 6 980 21 q 805 -10 873 -10 q 673 16 733 -10 q 575 94 613 42 q 466 14 528 42 q 335 -10 404 -13 q 222 17 275 -8 q 132 86 169 42 q 75 192 94 131 q 61 330 56 254 q 96 475 67 412 q 168 580 125 538 q 267 643 212 623 q 383 663 322 664 q 513 626 455 659 q 608 532 572 592 q 729 627 659 592 q 872 661 798 661 m 196 324 q 227 148 188 216 q 340 78 265 81 q 463 139 415 75 q 519 313 511 203 q 489 497 528 428 q 377 570 450 567 q 253 507 302 573 q 196 324 204 441 m 868 567 q 803 553 835 567 q 745 516 771 540 q 699 461 718 493 q 672 393 680 429 l 840 393 q 936 417 900 393 q 977 471 972 441 q 959 536 983 506 q 868 567 934 567 z "},"Š":{"ha":623,"x_min":26,"x_max":653,"o":"m 445 204 q 442 267 450 239 q 417 319 434 295 q 374 364 399 343 q 321 405 350 385 q 241 467 281 434 q 172 540 201 500 q 127 627 142 580 q 121 734 112 675 q 156 828 129 787 q 224 896 184 868 q 318 939 265 924 q 429 953 370 953 q 564 937 512 953 q 645 902 615 921 l 623 754 q 564 824 610 795 q 447 852 517 852 q 320 825 364 852 q 268 750 276 797 q 274 695 263 722 q 305 644 284 669 q 353 596 326 619 q 409 549 380 573 q 489 480 452 514 q 551 407 525 445 q 587 324 576 369 q 591 222 599 279 q 552 120 581 164 q 477 45 522 75 q 375 -2 433 14 q 252 -18 318 -18 q 111 -2 166 -18 q 26 34 56 14 l 37 200 q 65 156 45 177 q 114 118 86 134 q 175 93 142 102 q 241 83 208 83 q 385 118 332 83 q 445 204 437 153 m 380 1030 q 335 1093 359 1058 q 288 1158 311 1127 q 245 1216 265 1189 q 212 1256 225 1242 l 307 1256 q 355 1213 326 1240 q 417 1154 385 1186 q 496 1213 458 1186 q 559 1256 535 1240 l 653 1256 q 597 1207 631 1239 q 528 1141 564 1175 q 461 1077 492 1108 q 412 1030 429 1046 l 380 1030 z "},"š":{"ha":533,"x_min":46,"x_max":570,"o":"m 350 156 q 334 202 353 180 q 287 244 316 223 q 223 288 259 265 q 160 341 188 311 q 116 408 133 370 q 107 495 99 445 q 139 575 115 543 q 198 626 163 607 q 278 654 233 645 q 372 663 322 663 q 463 651 423 663 q 527 627 503 640 l 508 509 q 453 549 493 532 q 367 567 413 567 q 283 553 318 567 q 241 501 247 540 q 256 455 238 476 q 304 413 275 434 q 368 370 334 393 q 430 318 402 346 q 474 251 458 289 q 482 161 490 212 q 451 81 476 113 q 390 29 426 49 q 308 -1 354 8 q 212 -10 262 -10 q 115 2 161 -10 q 46 27 69 14 l 61 164 q 128 110 81 134 q 225 86 174 86 q 311 101 278 86 q 350 156 343 115 m 297 774 q 252 837 276 803 q 205 903 228 872 q 162 960 182 934 q 129 1001 142 987 l 223 1001 q 272 958 243 985 q 334 899 302 931 q 413 958 375 931 q 476 1001 452 985 l 570 1001 q 514 951 548 983 q 445 886 481 920 q 378 821 409 852 q 329 774 346 790 l 297 774 z "},"Ÿ":{"ha":806,"x_min":112,"x_max":905,"o":"m 493 370 l 460 145 q 456 84 453 110 q 463 39 458 57 q 473 11 468 21 q 481 0 479 2 l 259 0 q 269 10 260 0 q 289 37 278 19 q 311 81 300 54 q 327 145 322 109 l 361 370 l 184 825 q 139 904 163 873 q 112 940 115 936 l 367 940 q 360 930 366 939 q 350 906 354 921 q 346 871 346 891 q 353 825 345 851 l 482 508 l 686 825 q 709 871 702 851 q 715 906 715 891 q 712 930 715 921 q 709 940 709 939 l 905 940 q 865 906 899 936 q 797 825 832 876 l 493 370 m 342 1117 q 377 1185 350 1159 q 437 1210 404 1210 q 489 1185 469 1210 q 503 1117 509 1159 q 469 1052 496 1076 q 410 1028 442 1028 q 356 1052 377 1028 q 342 1117 335 1076 m 584 1117 q 619 1185 592 1159 q 680 1210 647 1210 q 732 1185 712 1210 q 746 1117 752 1159 q 712 1052 739 1076 q 653 1028 685 1028 q 599 1052 619 1028 q 584 1117 578 1076 z "},"Ž":{"ha":728,"x_min":-3,"x_max":800,"o":"m 13 94 q 96 206 35 128 q 238 386 156 284 q 414 605 319 489 q 599 833 509 722 l 270 833 q 170 817 203 833 q 112 766 137 800 l 142 940 l 800 940 l 787 862 q 709 758 766 830 q 569 583 651 685 q 387 358 487 481 q 182 107 287 236 l 527 107 q 626 124 594 107 q 683 174 658 140 l 653 0 l -3 0 l 13 94 m 433 1030 q 388 1093 412 1058 q 341 1158 364 1127 q 298 1216 318 1189 q 265 1256 278 1242 l 359 1256 q 408 1213 378 1240 q 469 1154 437 1186 q 549 1213 511 1186 q 611 1256 587 1240 l 706 1256 q 650 1207 683 1239 q 580 1141 616 1175 q 513 1077 544 1108 q 465 1030 482 1046 l 433 1030 z "},"ž":{"ha":517,"x_min":6,"x_max":567,"o":"m 19 78 q 65 140 35 99 q 133 230 96 180 q 212 333 171 279 q 288 433 252 386 q 350 516 324 481 q 385 562 375 551 l 239 562 q 141 551 172 562 q 85 511 110 540 l 109 653 l 567 653 l 559 591 q 516 531 546 572 q 446 439 485 490 q 364 332 407 388 q 283 227 321 276 q 216 140 244 177 q 177 91 187 104 l 335 91 q 393 93 369 91 q 434 100 417 94 q 465 115 452 105 q 490 142 477 125 l 466 0 l 6 0 l 19 78 m 289 774 q 244 837 268 803 q 197 903 220 872 q 154 960 174 934 q 121 1001 134 987 l 216 1001 q 264 958 235 985 q 326 899 294 931 q 405 958 367 931 q 468 1001 444 985 l 562 1001 q 506 951 540 983 q 437 886 473 920 q 370 821 401 852 q 321 774 338 790 l 289 774 z "},"ƒ":{"ha":682,"x_min":-6,"x_max":766,"o":"m 335 564 l 238 564 l 252 653 l 362 653 l 399 773 q 502 927 429 872 q 659 982 575 982 q 729 973 709 982 q 766 956 749 964 l 747 841 q 722 874 744 862 q 666 886 699 886 q 586 861 621 886 q 532 769 551 837 l 495 653 l 627 653 l 615 564 l 468 564 l 358 193 q 316 105 343 144 q 255 40 289 67 q 180 -2 220 13 q 97 -16 139 -16 q 30 -7 48 -16 q -6 10 11 2 l 13 125 q 37 92 16 104 q 91 80 57 80 q 171 105 136 80 q 228 196 206 129 l 335 564 z "},"ˆ":{"ha":509,"x_min":83,"x_max":524,"o":"m 350 969 q 385 922 362 953 q 432 857 407 891 q 481 792 457 824 q 524 742 506 760 l 429 742 q 381 785 410 758 q 319 845 351 813 q 239 785 278 813 q 177 742 201 758 l 83 742 q 129 783 101 757 q 189 841 156 809 q 255 906 222 872 q 319 969 289 940 l 350 969 z "},"ˇ":{"ha":509,"x_min":120,"x_max":560,"o":"m 287 774 q 243 837 267 803 q 196 903 219 872 q 152 960 172 934 q 120 1001 133 987 l 214 1001 q 263 958 233 985 q 324 899 292 931 q 404 958 366 931 q 466 1001 442 985 l 560 1001 q 504 951 538 983 q 435 886 471 920 q 368 821 399 852 q 319 774 337 790 l 287 774 z "},"˘":{"ha":342,"x_min":89,"x_max":404,"o":"m 220 758 q 168 770 193 758 q 126 805 144 782 q 99 858 109 827 q 93 929 89 889 l 161 929 q 184 868 161 888 q 233 849 206 849 l 238 849 q 294 868 267 849 q 335 929 321 888 l 404 929 q 375 858 394 889 q 331 805 356 827 q 279 770 307 782 q 225 758 251 758 l 220 758 z "},"˙":{"ha":279,"x_min":120,"x_max":294,"o":"m 126 846 q 161 913 134 888 q 222 939 188 939 q 274 913 254 939 q 287 846 294 888 q 254 781 281 805 q 195 757 227 757 q 140 781 161 757 q 126 846 120 805 z "},"˚":{"ha":453,"x_min":169,"x_max":412,"o":"m 176 843 q 223 928 184 892 q 308 963 262 963 q 383 928 354 963 q 404 843 412 892 q 388 797 401 819 q 358 758 375 774 q 318 733 340 742 q 271 723 295 723 q 197 758 225 723 q 176 843 169 793 m 230 843 q 242 799 227 817 q 281 781 257 781 q 326 799 305 781 q 350 843 346 817 q 338 887 353 868 q 299 905 322 905 q 255 887 275 905 q 230 843 235 868 z "},"˛":{"ha":303,"x_min":14,"x_max":259,"o":"m 236 11 q 178 -45 209 -11 q 136 -126 147 -80 q 147 -207 121 -182 q 209 -231 172 -231 q 227 -231 219 -231 q 243 -228 235 -230 q 259 -225 251 -227 l 214 -286 q 187 -295 201 -291 q 160 -303 174 -299 q 128 -307 145 -307 q 88 -302 109 -308 q 50 -279 67 -295 q 24 -239 34 -263 q 19 -179 14 -214 q 37 -125 22 -153 q 72 -72 51 -97 q 118 -25 93 -46 q 168 11 144 -3 l 236 11 l 236 11 z "},"˜":{"ha":490,"x_min":75,"x_max":544,"o":"m 382 758 q 328 767 359 758 q 278 795 297 776 q 243 818 262 809 q 204 825 223 827 q 168 807 185 822 q 142 758 152 792 l 75 758 q 138 876 93 838 q 235 913 184 913 q 286 904 257 913 q 337 876 314 894 q 373 853 353 860 q 413 850 393 846 q 449 869 433 854 q 476 913 466 884 l 544 913 q 481 796 525 833 q 382 758 436 758 z "},"˝":{"ha":567,"x_min":190,"x_max":694,"o":"m 498 937 q 467 876 493 907 q 407 821 441 846 q 339 774 374 795 q 284 742 305 754 l 190 742 q 236 784 211 758 q 286 837 262 809 q 327 892 310 865 q 348 937 345 920 l 423 937 l 498 937 m 694 937 q 664 876 690 907 q 605 821 639 846 q 536 774 572 795 q 481 742 501 754 l 386 742 q 433 784 407 758 q 482 837 458 809 q 524 892 506 865 q 544 937 541 920 l 619 937 l 694 937 z "},"–":{"ha":699,"x_min":24,"x_max":738,"o":"m 738 479 l 720 374 l 24 374 l 42 479 l 738 479 z "},"—":{"ha":1427,"x_min":24,"x_max":1466,"o":"m 1466 479 l 1448 374 l 24 374 l 42 479 l 1466 479 z "},"‘":{"ha":310,"x_min":172,"x_max":396,"o":"m 180 760 q 243 888 190 832 q 396 969 295 945 q 363 941 380 958 q 334 906 346 924 q 312 870 321 888 q 302 838 303 852 q 304 812 299 825 q 322 792 310 798 q 355 755 345 779 q 362 702 366 731 q 325 640 356 661 q 255 626 294 619 q 195 669 217 634 q 180 760 172 704 z "},"’":{"ha":310,"x_min":163,"x_max":386,"o":"m 378 835 q 316 706 369 763 q 163 626 263 650 q 196 654 179 637 q 225 689 212 670 q 247 725 238 707 q 257 757 255 742 q 255 783 260 769 q 236 803 249 797 q 204 840 214 816 q 196 892 193 864 q 234 955 203 934 q 303 969 265 975 q 364 926 342 961 q 378 835 386 891 z "},"‚":{"ha":314,"x_min":43,"x_max":267,"o":"m 259 37 q 196 -92 249 -35 q 43 -172 144 -148 q 76 -144 59 -161 q 105 -109 93 -128 q 127 -73 118 -91 q 137 -42 136 -56 q 135 -15 140 -29 q 117 5 129 -2 q 84 42 94 18 q 77 94 73 65 q 114 156 83 136 q 184 171 145 177 q 244 128 222 163 q 259 37 267 93 z "},"“":{"ha":528,"x_min":172,"x_max":623,"o":"m 180 760 q 243 888 190 832 q 396 969 295 945 q 363 941 380 958 q 334 906 346 924 q 312 870 321 888 q 302 838 303 852 q 304 812 299 825 q 322 792 310 798 q 355 755 345 779 q 362 702 366 731 q 325 640 356 661 q 255 626 294 619 q 195 669 217 634 q 180 760 172 704 m 407 760 q 469 888 417 832 q 623 969 522 945 q 590 941 607 958 q 560 906 573 924 q 539 870 548 888 q 528 838 530 852 q 531 812 525 825 q 549 792 536 798 q 582 755 572 779 q 589 702 592 731 q 552 640 583 661 q 482 626 520 619 q 421 669 444 634 q 407 760 399 704 z "},"”":{"ha":538,"x_min":163,"x_max":615,"o":"m 378 835 q 316 706 369 763 q 163 626 263 650 q 196 654 179 637 q 225 689 212 670 q 247 725 238 707 q 257 757 255 742 q 255 783 260 769 q 236 803 249 797 q 204 840 214 816 q 196 892 193 864 q 234 955 203 934 q 303 969 265 975 q 364 926 342 961 q 378 835 386 891 m 607 835 q 544 706 597 763 q 391 626 492 650 q 424 654 407 637 q 453 689 441 670 q 475 725 466 707 q 485 757 484 742 q 483 783 489 769 q 465 803 477 797 q 432 840 442 816 q 425 892 421 864 q 462 955 431 934 q 532 969 493 975 q 592 926 570 961 q 607 835 615 891 z "},"„":{"ha":538,"x_min":43,"x_max":493,"o":"m 259 37 q 196 -92 249 -35 q 43 -172 144 -148 q 76 -144 59 -161 q 105 -109 93 -128 q 127 -73 118 -91 q 137 -42 136 -56 q 135 -15 140 -29 q 117 5 129 -2 q 84 42 94 18 q 77 94 73 65 q 114 156 83 136 q 184 171 145 177 q 244 128 222 163 q 259 37 267 93 m 485 37 q 423 -92 476 -35 q 270 -172 370 -148 q 303 -144 286 -161 q 332 -109 319 -128 q 354 -73 345 -91 q 364 -42 362 -56 q 362 -15 367 -29 q 343 5 356 -2 q 311 42 321 18 q 303 94 300 65 q 341 156 310 136 q 410 171 372 177 q 471 128 449 163 q 485 37 493 93 z "},"†":{"ha":699,"x_min":192,"x_max":663,"o":"m 524 969 l 482 702 l 663 718 l 647 613 l 471 629 l 364 -85 l 263 -85 l 372 629 l 192 613 l 208 718 l 382 702 l 423 969 l 524 969 z "},"‡":{"ha":699,"x_min":125,"x_max":663,"o":"m 524 969 l 482 702 l 663 718 l 647 613 l 471 629 l 415 255 l 594 271 l 580 166 l 405 182 l 364 -85 l 263 -85 l 305 182 l 125 166 l 139 271 l 316 255 l 372 629 l 192 613 l 208 718 l 382 702 l 423 969 l 524 969 z "},"•":{"ha":489,"x_min":85,"x_max":461,"o":"m 91 398 q 117 476 97 441 q 164 536 136 511 q 228 576 193 562 q 302 589 263 589 q 370 576 340 589 q 421 536 401 562 q 452 476 442 511 q 455 398 461 441 q 382 263 442 313 q 246 212 322 212 q 176 226 208 212 q 125 263 145 239 q 94 322 104 287 q 91 398 85 356 z "},"…":{"ha":936,"x_min":62,"x_max":889,"o":"m 69 80 q 106 146 75 121 q 177 171 137 171 q 242 146 217 171 q 259 80 267 121 q 223 14 254 38 q 152 -10 192 -10 q 87 14 112 -10 q 69 80 62 38 m 380 80 q 417 146 386 121 q 489 171 449 171 q 553 146 528 171 q 570 80 578 121 q 533 14 564 38 q 463 -10 503 -10 q 398 14 423 -10 q 380 80 374 38 m 690 80 q 728 146 698 121 q 800 171 758 171 q 864 146 840 171 q 881 80 889 121 q 845 14 875 38 q 774 -10 814 -10 q 709 14 733 -10 q 690 80 685 38 z "},"‰":{"ha":1127,"x_min":40,"x_max":1095,"o":"m 1087 225 q 1058 127 1079 171 q 1009 53 1038 83 q 947 6 980 22 q 878 -10 913 -10 q 766 53 806 -10 q 635 -10 707 -10 q 524 53 565 -10 q 500 225 482 115 q 578 407 517 343 q 709 471 639 471 q 772 455 742 471 q 821 407 801 439 q 951 471 880 471 q 1015 454 987 471 q 1062 406 1044 437 q 1088 330 1081 375 q 1087 225 1095 284 m 99 704 q 129 809 109 763 q 178 885 150 854 q 239 933 206 916 q 308 950 273 950 q 372 933 343 950 q 420 885 401 916 q 446 809 439 854 q 444 704 453 763 q 416 606 436 650 q 367 532 396 562 q 305 485 338 501 q 236 469 271 469 q 172 485 201 469 q 125 532 144 501 q 98 606 105 562 q 99 704 91 650 m 140 0 l 40 0 q 53 16 45 6 q 86 55 62 26 q 157 143 110 85 q 287 304 204 201 q 493 562 369 407 q 797 940 618 717 l 900 940 l 140 0 m 600 225 q 601 107 589 152 q 647 62 613 62 q 702 104 677 62 q 739 214 726 145 l 744 236 q 741 354 752 311 q 698 398 730 398 q 639 351 664 398 q 600 225 613 305 m 200 704 q 201 586 188 631 q 247 541 214 541 q 304 586 279 541 q 342 704 329 631 q 342 830 354 784 q 297 876 329 876 q 239 830 265 876 q 200 704 212 784 m 987 225 q 986 351 998 305 q 940 398 974 398 q 884 354 908 398 q 846 236 859 311 l 845 225 q 845 107 833 152 q 889 62 857 62 q 947 107 921 62 q 987 225 974 152 z "},"‹":{"ha":444,"x_min":78,"x_max":474,"o":"m 474 702 l 460 597 l 220 426 l 409 255 l 391 150 l 78 390 l 89 463 l 474 702 z "},"›":{"ha":444,"x_min":43,"x_max":439,"o":"m 439 463 l 428 390 l 43 150 l 59 255 l 299 426 l 110 597 l 126 702 l 439 463 z "},"⁄":{"ha":249,"x_min":-260,"x_max":597,"o":"m -161 0 l -260 0 q -245 18 -254 6 q -212 59 -236 29 q -140 148 -187 89 q -12 308 -94 206 q 193 564 70 410 q 493 940 316 718 l 597 940 l -161 0 z "},"€":{"ha":824,"x_min":53,"x_max":848,"o":"m 190 635 q 259 771 216 712 q 356 871 302 830 q 473 932 410 912 q 602 953 536 953 q 754 937 691 953 q 848 902 816 921 l 825 754 q 752 826 806 800 q 610 852 698 852 q 453 795 519 852 q 350 635 386 738 l 723 635 l 678 530 l 322 530 q 318 498 319 514 q 316 465 318 482 q 314 437 314 450 q 314 412 314 425 l 645 412 l 599 307 l 326 307 q 410 147 348 206 q 560 88 473 88 q 683 115 627 88 q 779 195 739 142 l 758 49 q 658 6 709 21 q 530 -10 607 -10 q 401 12 461 -10 q 293 74 340 34 q 213 173 246 115 q 166 307 180 231 l 53 307 l 69 412 l 155 412 q 155 438 155 425 q 156 465 155 452 q 160 498 158 482 q 164 530 161 514 l 86 530 l 102 635 l 190 635 z "},"™":{"ha":608,"x_min":81,"x_max":667,"o":"m 93 940 l 316 940 l 308 881 q 294 898 303 892 q 262 904 284 904 l 222 904 l 192 701 q 192 664 187 675 q 198 651 198 653 l 123 651 q 133 663 125 651 q 147 701 142 675 l 177 904 l 137 904 q 103 898 115 904 q 81 881 91 892 l 93 940 m 391 940 q 412 892 390 939 q 476 736 434 846 q 579 892 548 845 q 608 940 610 939 l 667 940 q 657 927 666 939 q 643 891 648 915 l 616 701 q 617 663 611 675 q 624 651 623 651 l 549 651 q 559 664 551 653 q 572 701 567 675 l 592 840 q 512 718 546 766 q 471 651 479 669 l 450 651 q 437 685 449 659 q 413 741 426 710 q 388 799 399 771 q 374 840 377 827 l 353 701 q 354 664 350 675 q 361 651 359 653 l 294 651 q 304 663 295 651 q 318 701 313 675 l 345 891 q 343 927 348 915 q 337 940 338 939 l 391 940 z "},"−":{"ha":699,"x_min":96,"x_max":688,"o":"m 688 479 l 672 374 l 96 374 l 112 479 l 688 479 z "},"ﬁ":{"ha":678,"x_min":-89,"x_max":701,"o":"m 637 22 q 540 -6 578 -5 q 483 7 503 -8 q 458 49 463 22 q 458 109 453 77 l 527 564 l 300 564 l 208 -62 q 180 -148 201 -109 q 132 -218 160 -188 q 72 -264 104 -247 q 11 -281 40 -281 q -54 -263 -30 -281 q -89 -217 -78 -244 q 19 -168 -29 -217 q 78 -46 67 -120 l 168 564 l 72 564 l 85 653 l 182 653 l 193 725 q 223 821 200 774 q 287 903 247 867 q 385 960 327 939 q 517 982 442 982 q 616 974 576 982 q 683 956 656 966 l 658 785 q 608 856 645 825 q 496 886 572 886 q 430 872 460 886 q 379 837 401 859 q 343 785 358 814 q 324 722 329 755 l 314 653 l 701 653 q 681 625 698 650 q 655 540 664 600 l 591 109 q 589 62 586 80 q 600 37 592 45 q 619 26 608 29 q 637 22 629 22 z "},"ﬂ":{"ha":672,"x_min":-91,"x_max":760,"o":"m 648 22 q 552 -6 589 -5 q 494 7 514 -8 q 469 49 474 22 q 469 109 465 77 l 580 846 q 536 872 567 859 q 461 886 506 886 q 379 861 417 886 q 330 769 342 837 l 314 653 l 461 653 l 447 564 l 300 564 l 206 -62 q 179 -148 200 -109 q 130 -218 158 -188 q 70 -264 102 -247 q 10 -281 38 -281 q -56 -263 -32 -281 q -91 -217 -80 -244 q 18 -168 -30 -217 q 77 -46 65 -120 l 168 564 l 72 564 l 85 653 l 182 653 l 200 773 q 281 927 216 872 q 431 982 346 982 q 534 967 498 982 q 592 940 570 953 l 602 972 l 760 972 q 739 944 757 969 q 714 859 722 920 l 600 109 q 599 62 595 80 q 611 37 603 45 q 629 26 619 29 q 648 22 639 22 z "}}}
